<?xml version="1.0" standalone="no"?>
<!DOCTYPE svg PUBLIC "-//W3C//DTD SVG 20010904//EN"
 "http://www.w3.org/TR/2001/REC-SVG-20010904/DTD/svg10.dtd">
<svg version="1.0" xmlns="http://www.w3.org/2000/svg"
 width="1200.000000pt" height="900.000000pt" viewBox="0 0 1200.000000 900.000000"
 preserveAspectRatio="xMidYMid meet">

<g transform="translate(0.000000,900.000000) scale(0.100000,-0.100000)"
fill="#000000" stroke="none">
<path d="M5359 8615 c-3 -2 -597 -5 -1320 -6 -723 0 -1428 -5 -1567 -9 -293
-10 -316 -16 -401 -95 -89 -83 -108 -161 -76 -297 17 -69 42 -152 56 -183 4
-11 18 -49 29 -85 12 -36 25 -74 30 -85 25 -64 41 -108 61 -170 12 -38 25 -74
30 -80 5 -5 9 -16 9 -25 0 -8 7 -28 15 -44 8 -15 15 -36 15 -45 0 -10 7 -26
15 -37 8 -10 15 -27 15 -37 0 -11 7 -35 16 -55 9 -21 22 -52 30 -70 8 -18 14
-40 14 -48 0 -9 6 -30 14 -47 25 -59 45 -112 62 -167 9 -30 22 -68 30 -85 7
-16 47 -129 89 -250 42 -121 83 -233 90 -250 7 -16 27 -73 45 -125 17 -52 35
-102 39 -110 5 -9 12 -30 16 -49 4 -18 13 -44 21 -59 8 -15 14 -37 14 -49 0
-13 4 -23 8 -23 5 0 19 -33 32 -72 12 -40 27 -77 31 -82 5 -6 9 -19 9 -30 0
-12 7 -34 15 -50 8 -15 15 -33 15 -39 0 -6 13 -44 29 -86 16 -42 46 -123 66
-181 20 -58 40 -114 45 -125 5 -11 21 -56 36 -100 15 -44 40 -116 56 -160 16
-44 44 -125 64 -180 19 -55 40 -113 48 -130 7 -16 26 -64 40 -105 33 -90 54
-144 71 -185 7 -17 16 -45 19 -62 4 -18 12 -35 17 -38 5 -4 9 -13 9 -22 0 -9
12 -46 26 -82 15 -36 30 -79 35 -96 4 -16 17 -55 29 -85 11 -30 30 -82 41
-115 11 -33 24 -69 29 -80 5 -11 16 -40 25 -65 9 -25 34 -97 56 -160 23 -63
45 -131 51 -150 6 -19 13 -39 18 -45 4 -5 10 -23 14 -40 4 -16 24 -77 45 -135
21 -58 55 -159 76 -225 22 -66 42 -122 47 -123 4 -2 8 -13 8 -24 0 -11 6 -34
14 -51 31 -70 55 -155 49 -178 -6 -22 -5 -23 12 -9 17 14 18 13 11 -13 -4 -17
-3 -26 2 -23 6 3 10 0 9 -7 -1 -39 4 -67 12 -63 5 3 11 -5 13 -18 4 -20 0 -25
-21 -29 -14 -3 -46 -11 -70 -18 -29 -8 -45 -9 -50 -2 -3 6 -21 8 -38 6 -18 -3
-30 -9 -27 -14 3 -5 -4 -9 -15 -9 -11 0 -23 -5 -26 -10 -4 -6 -21 -10 -38 -10
-57 2 -157 -13 -157 -22 0 -5 -9 -6 -20 -3 -11 4 -20 2 -20 -4 0 -6 -15 -11
-32 -11 -25 0 -29 3 -18 10 9 6 10 10 3 10 -6 0 -19 -7 -28 -16 -18 -19 -56
-23 -95 -11 -24 8 -25 8 -5 -8 19 -16 19 -16 -17 -14 -20 2 -40 0 -44 -4 -11
-10 -52 -9 -59 3 -3 6 -1 10 6 10 7 0 10 2 8 5 -11 10 -50 -8 -45 -21 4 -11
-10 -14 -71 -14 -56 0 -79 -4 -87 -15 -8 -11 -34 -16 -98 -18 -68 -1 -84 -5
-76 -14 8 -10 -2 -13 -45 -13 -30 0 -71 -7 -92 -16 -21 -8 -61 -14 -89 -13
-28 1 -59 -2 -68 -6 -10 -4 -24 -5 -31 -2 -8 3 -20 1 -28 -4 -10 -6 -8 -9 11
-10 40 -2 -79 -19 -143 -20 -31 0 -57 -4 -57 -8 0 -5 -25 -11 -57 -14 -31 -3
-59 -10 -62 -15 -3 -5 -31 -10 -61 -11 -30 -1 -58 -8 -62 -14 -4 -7 -27 -11
-58 -10 -27 1 -50 -2 -50 -7 0 -6 -11 -10 -25 -10 -14 0 -25 4 -25 8 0 16 -40
7 -46 -10 -4 -14 -16 -18 -58 -18 -28 0 -57 -5 -64 -12 -9 -9 -17 -9 -35 1
-14 7 -33 11 -43 8 -16 -4 -15 -5 4 -6 37 -2 15 -21 -24 -21 -19 0 -43 -6 -54
-12 -16 -11 -22 -9 -33 6 -15 21 -42 13 -33 -10 4 -10 -2 -14 -20 -14 -14 0
-22 4 -19 10 3 6 1 10 -4 10 -6 0 -11 -6 -11 -13 0 -14 -86 -37 -137 -37 -17
0 -50 -7 -74 -16 -30 -10 -60 -13 -93 -9 -41 5 -48 4 -43 -9 5 -13 -1 -16 -31
-17 -40 -1 -58 -3 -91 -14 -12 -4 -21 -2 -21 4 0 6 10 11 22 11 17 0 19 3 10
12 -9 9 -17 8 -37 -2 -18 -10 -22 -16 -13 -21 13 -8 7 -12 -40 -22 -18 -4 -22
-2 -18 9 7 19 -4 18 -18 -1 -7 -9 -30 -16 -58 -17 -27 -1 -48 -5 -48 -9 0 -4
-24 -10 -52 -14 -29 -4 -57 -10 -63 -13 -5 -3 -16 -7 -25 -7 -60 -6 -121 -18
-125 -26 -3 -5 -41 -7 -83 -5 -54 3 -65 2 -37 -4 l40 -7 -42 -2 c-23 0 -79
-10 -125 -22 -46 -11 -90 -21 -98 -23 -28 -4 -105 -17 -125 -21 -11 -2 -23 -4
-27 -4 -5 -1 -8 -160 -8 -353 1 -278 3 -357 14 -370 7 -10 33 -21 60 -24 25
-4 56 -15 68 -26 16 -14 34 -18 63 -16 29 2 40 -1 40 -11 0 -8 13 -18 28 -22
16 -4 34 -12 40 -17 21 -16 60 -22 74 -10 8 6 13 7 13 1 0 -6 26 -18 58 -28
31 -10 65 -24 74 -33 12 -9 28 -12 50 -8 18 3 40 1 48 -4 12 -8 10 -10 -10
-10 -46 -1 3 -20 63 -24 30 -3 75 -14 100 -25 25 -12 56 -21 69 -21 13 0 32
-6 43 -14 11 -7 37 -16 58 -20 21 -4 40 -13 43 -21 4 -9 16 -12 40 -8 25 4 40
1 55 -13 12 -10 35 -19 52 -20 18 0 55 -6 82 -13 28 -8 69 -18 92 -24 24 -6
43 -14 43 -17 0 -3 16 -6 36 -6 19 0 38 -4 42 -10 11 -15 60 -34 90 -34 15 -1
38 -7 52 -15 14 -8 41 -14 60 -15 20 0 45 -7 56 -15 32 -22 105 -45 144 -45
20 0 45 -7 56 -15 12 -8 24 -11 28 -8 3 3 6 1 6 -5 0 -7 14 -12 30 -12 17 0
30 -4 30 -10 0 -5 7 -7 15 -4 8 4 40 -6 71 -20 41 -19 60 -24 73 -16 10 5 20
7 23 5 2 -3 37 -9 78 -15 41 -6 81 -17 89 -24 9 -7 34 -17 56 -20 78 -13 170
-39 189 -52 11 -7 29 -11 41 -8 11 3 40 0 63 -5 23 -6 61 -16 84 -22 23 -5 48
-15 55 -21 7 -6 34 -10 59 -10 25 1 53 -2 62 -7 9 -4 31 -16 49 -25 17 -9 58
-18 90 -21 69 -5 84 -8 101 -19 18 -11 72 -26 112 -32 47 -6 130 -24 158 -35
13 -5 38 -9 57 -9 19 0 35 -4 35 -9 0 -4 26 -12 58 -16 73 -9 74 -9 157 -33
74 -21 161 -37 284 -52 41 -5 78 -15 82 -22 6 -9 11 -9 22 1 10 8 17 9 22 1 8
-13 725 -14 769 -1 17 5 63 18 101 30 137 40 179 51 204 51 14 0 39 7 56 16
16 8 37 13 47 11 10 -3 18 -1 18 4 0 5 9 9 20 9 17 0 30 4 95 31 11 4 40 11
64 15 25 3 69 15 100 25 30 11 64 19 77 19 13 0 25 4 28 9 4 5 24 12 46 16 22
4 40 11 40 16 0 4 7 6 15 3 8 -3 30 3 48 15 19 12 46 21 61 21 28 0 172 36
196 49 8 5 29 6 46 4 20 -3 35 1 43 11 8 9 26 16 41 16 15 0 47 9 71 20 24 11
58 20 75 20 18 0 45 7 60 15 16 8 37 15 47 15 10 0 26 4 36 9 10 6 29 11 43
13 14 2 32 9 41 16 8 7 21 10 30 6 8 -3 35 4 60 15 25 12 62 21 81 21 20 0 36
4 36 10 0 5 12 12 28 16 23 5 84 24 132 42 8 3 23 4 34 3 11 -2 16 2 12 8 -5
7 5 11 28 11 19 0 37 6 39 13 4 9 6 9 6 0 1 -15 31 -18 31 -4 0 8 64 25 99 26
8 0 16 6 19 13 2 6 8 9 13 6 6 -3 16 -1 24 6 7 6 28 12 47 13 18 1 38 5 43 9
6 4 49 16 95 28 47 12 89 26 95 31 5 5 25 9 45 9 20 0 40 4 45 9 6 6 46 17 90
26 44 9 97 23 119 31 21 8 70 21 109 30 39 8 74 20 78 26 4 6 25 11 48 11 23
0 44 4 47 8 3 5 20 9 39 9 19 0 37 4 40 10 3 5 14 10 23 10 9 0 29 6 43 13 14
8 40 14 58 15 18 0 44 8 57 17 14 9 41 17 60 18 19 2 33 7 32 12 -3 10 93 33
160 40 18 2 39 8 46 14 8 7 22 14 32 16 11 2 53 11 94 21 41 9 90 19 108 21
17 3 32 9 32 14 0 5 9 9 20 9 12 0 34 7 49 15 16 8 31 12 34 9 6 -6 87 16 104
29 7 5 17 6 23 2 5 -3 36 5 67 19 61 26 112 41 127 37 5 -1 32 7 60 18 28 12
71 23 96 25 24 2 46 9 48 15 2 6 24 11 48 11 25 0 55 6 67 14 12 7 51 20 86
27 35 8 66 19 68 26 3 8 23 13 48 13 23 0 56 7 71 15 16 8 41 15 55 15 15 0
32 7 39 15 8 9 21 13 32 9 16 -5 87 14 128 36 9 4 35 11 58 15 23 4 44 11 48
16 3 5 21 9 40 9 19 0 49 7 66 16 17 9 39 14 49 11 11 -3 17 -1 13 4 -3 5 10
9 29 9 18 0 37 3 41 7 14 14 83 33 123 33 35 0 41 3 36 17 -4 11 -3 14 6 9 13
-9 99 11 116 25 5 5 22 9 37 9 16 0 31 6 34 14 3 8 29 16 67 20 34 3 63 11 65
16 2 6 21 10 42 10 21 0 43 6 50 15 7 9 29 15 54 15 23 0 51 7 63 15 19 14
114 39 187 50 40 7 126 33 140 43 6 5 34 17 61 27 28 10 91 38 142 62 51 24
95 43 99 43 4 0 15 10 25 22 18 20 19 54 19 803 0 445 -4 785 -9 790 -5 6 -26
51 -46 100 -20 50 -43 104 -50 120 -24 56 -34 80 -61 145 -14 36 -34 83 -44
105 -10 22 -34 81 -55 130 -21 50 -46 108 -55 130 -34 78 -88 211 -111 270
-26 69 -63 158 -84 198 -8 16 -15 33 -15 38 0 8 -16 45 -84 194 -13 28 -29 67
-35 87 -7 21 -17 40 -22 43 -5 4 -9 14 -9 23 0 9 -11 39 -25 67 -13 27 -43 95
-66 150 -23 55 -52 123 -64 150 -13 28 -37 85 -54 127 -17 43 -35 86 -40 95
-6 10 -17 36 -26 58 -9 22 -23 55 -30 73 -8 18 -21 48 -29 67 -9 20 -22 51
-30 70 -9 20 -22 50 -29 68 -8 17 -19 43 -25 57 -6 14 -21 50 -32 80 -12 30
-26 62 -31 70 -5 8 -12 22 -15 30 -20 50 -49 120 -64 155 -48 107 -90 210 -90
222 0 7 -4 13 -10 13 -5 0 -10 5 -10 11 0 6 -6 25 -14 42 -8 18 -26 60 -40 94
-15 35 -37 87 -51 117 -14 30 -25 57 -25 61 0 3 -24 61 -54 128 -29 67 -64
147 -76 177 -12 30 -33 80 -47 110 -28 62 -46 103 -69 158 -9 20 -22 50 -30
65 -8 16 -14 33 -14 38 0 5 -11 33 -25 62 -14 28 -42 90 -61 137 -20 47 -49
113 -65 148 -16 35 -29 65 -29 67 0 12 -94 200 -102 203 -4 2 -8 8 -8 14 0 6
-17 32 -37 57 -80 99 -144 142 -242 161 -54 10 -4292 15 -4302 5z m-3187 -159
c17 -9 44 -16 60 -16 18 0 28 -5 28 -14 0 -9 9 -14 23 -14 57 4 87 -3 87 -17
0 -14 12 -20 34 -16 22 4 45 -11 39 -27 -5 -13 -3 -14 7 -5 15 14 79 6 101
-14 9 -7 29 -13 45 -12 16 1 47 -6 69 -16 22 -10 55 -17 74 -16 46 3 88 -16
95 -42 5 -20 6 -20 26 -2 12 11 20 13 20 6 0 -8 11 -11 28 -9 24 3 27 0 25
-27 -1 -16 1 -23 3 -14 3 9 17 22 31 28 22 10 29 9 42 -4 13 -13 14 -17 2 -24
-7 -5 -11 -13 -7 -19 7 -12 46 -3 64 15 18 17 36 17 29 -1 -7 -17 34 -31 44
-15 9 15 59 39 59 28 0 -5 -5 -9 -12 -9 -9 0 -9 -3 0 -12 9 -9 17 -9 36 2 23
12 27 11 44 -10 14 -18 23 -21 43 -14 13 4 32 7 42 7 58 -3 80 -6 65 -10 -25
-6 -23 -33 2 -33 15 0 20 7 20 25 0 14 4 25 9 25 15 0 23 -18 11 -25 -6 -4 -8
-11 -4 -16 4 -6 11 -6 20 1 10 9 29 8 76 -4 35 -8 80 -16 100 -18 27 -1 38 -7
42 -23 5 -17 8 -18 16 -5 14 21 13 26 -12 39 -17 9 -18 10 -3 5 11 -4 29 -6
40 -6 14 1 25 -9 34 -30 l15 -32 9 27 c6 19 15 27 33 27 15 0 24 6 24 15 0 21
20 19 44 -4 28 -26 116 -19 109 9 -8 30 47 33 77 5 18 -17 32 -22 53 -18 24 5
27 2 27 -21 0 -16 5 -26 15 -26 8 0 15 3 15 8 0 4 4 13 9 21 8 12 12 13 26 1
9 -7 28 -14 43 -16 15 -1 42 -6 60 -9 29 -7 32 -5 32 18 0 31 18 39 65 26 20
-6 42 -8 48 -5 7 2 4 5 -7 5 -15 1 -16 3 -6 16 12 14 16 13 37 -7 l24 -22 -23
-13 c-13 -7 -18 -12 -11 -13 7 0 10 -6 7 -14 -7 -19 12 -29 42 -22 26 7 33 26
9 26 -8 0 -15 5 -15 10 0 6 9 10 19 10 11 0 21 8 23 17 3 16 5 15 23 -3 11
-12 30 -27 43 -33 12 -6 22 -19 23 -29 1 -28 17 17 18 51 1 18 6 27 17 27 11
0 14 -5 10 -16 -8 -20 2 -54 14 -54 19 0 81 74 75 89 -5 12 -3 13 6 4 7 -7 8
-17 3 -25 -5 -7 -9 -32 -9 -55 0 -33 2 -39 12 -31 7 6 13 14 13 19 0 4 5 20
12 36 l11 28 6 -30 c4 -21 13 -31 29 -33 12 -2 22 -10 22 -18 0 -8 6 -14 14
-14 24 0 46 11 46 24 0 16 63 43 68 28 2 -8 8 -8 22 0 28 18 70 -4 70 -36 0
-13 6 -26 14 -29 18 -7 26 1 26 29 0 33 18 39 26 9 6 -26 18 -32 29 -15 8 13
35 -6 35 -25 0 -17 28 -27 33 -12 2 7 -1 17 -7 22 -7 6 -9 27 -5 55 4 29 7 35
7 18 2 -24 6 -28 32 -28 31 0 39 -17 19 -37 -6 -6 -8 -16 -5 -22 9 -14 36 -15
36 -1 0 5 7 7 15 4 8 -4 15 -2 15 4 0 5 11 12 25 14 29 6 34 -15 10 -49 -12
-17 -12 -22 -1 -26 20 -8 43 10 30 23 -13 13 -7 50 8 50 6 0 8 14 4 34 -7 36
1 50 22 37 8 -5 9 -16 3 -39 -11 -38 -3 -46 47 -44 41 2 62 17 63 46 1 18 2
18 8 -4 8 -29 51 -42 51 -16 0 19 16 21 23 4 4 -9 8 -9 14 -3 4 6 17 17 27 25
18 14 19 14 8 -7 -15 -27 -16 -63 -2 -63 6 0 15 11 20 25 10 26 42 33 70 15
12 -8 10 -10 -10 -10 -28 0 -50 -16 -50 -37 0 -9 8 -11 25 -7 14 3 31 1 39 -5
8 -7 16 -8 18 -2 1 5 27 12 56 15 58 6 76 -9 53 -45 -10 -17 -8 -21 14 -29 37
-14 115 -13 115 2 0 6 8 3 20 -7 21 -19 18 -37 -5 -28 -8 3 -15 0 -15 -6 0 -6
9 -11 20 -11 27 0 43 41 30 76 -14 35 -13 44 6 44 8 0 15 -8 14 -17 -1 -10 1
-28 5 -40 6 -19 15 -23 46 -23 22 0 39 -4 39 -10 0 -5 -9 -10 -20 -10 -11 0
-23 -7 -27 -16 -3 -8 -12 -13 -19 -10 -8 3 -14 -1 -14 -9 0 -28 95 -13 111 17
8 15 7 24 -7 39 -16 17 -16 22 -4 30 8 5 21 7 28 4 8 -3 18 -5 23 -5 6 0 7
-15 3 -34 -5 -32 -4 -34 16 -29 12 3 28 20 36 37 l13 31 1 -32 c0 -26 4 -33
20 -33 13 0 20 -7 20 -19 0 -10 7 -21 15 -25 8 -3 15 -11 15 -18 0 -16 40 -58
56 -58 24 0 74 35 74 53 0 20 11 22 27 6 15 -15 43 -4 43 16 0 8 -3 15 -7 15
-5 0 -14 4 -22 9 -12 8 -12 11 0 23 12 13 17 11 43 -13 29 -27 29 -28 12 -53
-14 -23 -15 -26 -1 -26 9 0 18 -7 21 -15 4 -10 13 -13 24 -10 10 3 34 -1 53
-9 20 -8 38 -12 41 -8 14 13 4 33 -19 42 -16 6 -25 17 -25 31 0 16 4 19 18 14
9 -4 25 -10 35 -13 12 -3 17 -11 14 -23 -7 -25 15 -52 39 -47 26 5 30 35 5 43
-28 9 -26 17 9 37 27 15 45 9 20 -7 -15 -9 -12 -35 3 -35 7 0 18 -5 25 -12 7
-7 33 -11 62 -9 74 4 118 -16 126 -55 3 -18 3 -42 -1 -53 -7 -24 12 -55 37
-57 18 -2 32 32 17 42 -5 3 -9 0 -9 -7 0 -10 -3 -10 -11 -2 -13 13 -3 83 11
83 6 0 10 -7 10 -15 0 -8 5 -15 10 -15 6 0 10 7 10 16 0 9 8 23 18 30 18 14
62 19 62 6 0 -4 10 -12 23 -17 12 -6 21 -17 19 -25 -5 -21 18 -58 40 -63 27
-8 14 -52 -29 -94 -41 -41 -42 -57 -5 -49 20 5 30 2 40 -14 12 -19 10 -20 -34
-20 -28 0 -43 -4 -39 -10 4 -6 12 -10 18 -9 24 3 38 -1 33 -10 -7 -11 3 -41
14 -41 15 0 21 33 8 42 -10 6 -10 8 2 8 8 0 20 10 25 22 6 12 16 24 24 26 8 3
11 0 7 -6 -4 -7 9 -15 34 -22 42 -11 51 -24 23 -34 -15 -6 -14 -9 5 -28 24
-24 42 -18 22 8 -12 13 -11 17 1 25 12 8 12 10 -1 19 -13 9 -13 11 0 21 12 8
10 9 -10 5 -29 -6 -54 22 -44 49 9 23 34 18 34 -8 0 -21 5 -23 55 -24 52 -1
55 0 50 18 -5 15 -1 22 14 26 25 6 27 25 6 43 -18 15 -11 30 15 30 23 0 36
-18 22 -32 -6 -6 -8 -26 -5 -45 3 -20 0 -44 -7 -58 -10 -18 -11 -31 -3 -48 9
-20 8 -26 -10 -36 -17 -11 -22 -11 -33 4 -12 16 -15 15 -43 -6 -19 -14 -31
-32 -31 -45 0 -12 -6 -25 -12 -27 -10 -4 -10 -6 -1 -6 7 -1 21 9 32 20 14 15
28 20 47 16 34 -6 94 18 94 39 0 8 -4 23 -10 33 -5 11 -6 36 -1 62 l8 44 8
-37 c10 -51 25 -48 25 5 1 39 1 41 13 19 l13 -23 14 28 15 28 3 -42 c2 -24 -1
-51 -7 -60 -9 -16 -10 -14 -11 10 0 33 -17 36 -26 3 -3 -13 -15 -26 -26 -29
-35 -10 -10 -25 35 -22 35 3 42 7 41 24 0 12 3 21 7 21 4 0 16 3 26 6 15 6 16
4 6 -7 -7 -7 -13 -20 -13 -29 0 -9 -9 -32 -19 -53 -19 -38 -16 -42 26 -31 14
4 23 14 23 25 0 25 24 24 41 -2 15 -22 49 -18 49 7 0 15 29 18 68 8 29 -8 28
-20 -3 -28 -17 -4 -25 -13 -25 -27 0 -12 -8 -23 -20 -26 -35 -9 -24 -33 15
-33 33 0 35 2 29 25 -5 20 -2 25 23 31 15 4 33 11 40 16 7 6 27 4 54 -5 24 -8
37 -17 30 -21 -13 -8 -15 -46 -2 -46 5 0 11 6 14 13 6 15 63 11 85 -5 8 -7 12
-7 12 0 0 6 11 1 25 -12 30 -27 32 -46 7 -46 -10 0 -22 -3 -25 -6 -9 -10 12
-46 23 -39 6 3 17 2 27 -3 15 -9 14 -11 -5 -23 -26 -16 -12 -39 24 -39 19 0
24 5 24 25 0 14 -3 25 -7 25 -13 0 -34 53 -24 60 11 6 10 28 -2 47 -9 15 2 43
17 43 8 0 12 -21 10 -69 -1 -63 0 -68 18 -63 10 2 18 1 17 -4 -2 -5 1 -24 5
-41 6 -28 12 -33 37 -33 16 0 29 -2 29 -5 0 -4 -13 -29 -27 -54 -2 -2 -11 4
-22 13 -29 26 -38 0 -12 -35 29 -38 26 -49 -10 -49 -37 0 -35 -24 3 -28 20 -2
25 -7 21 -23 -4 -14 0 -22 14 -25 22 -6 43 -42 43 -73 0 -10 11 -26 25 -35 17
-11 22 -22 18 -34 -6 -16 -5 -16 14 1 11 9 33 17 49 17 17 0 35 5 41 11 7 7
19 9 28 5 16 -6 16 -8 1 -31 -9 -14 -12 -25 -6 -25 22 0 70 -58 70 -84 0 -15
7 -29 15 -32 8 -4 12 -11 8 -17 -3 -6 -1 -7 5 -3 6 3 9 25 7 49 -4 53 10 82
26 54 13 -22 29 -13 22 13 -4 14 -14 20 -34 20 -32 0 -47 16 -30 33 9 9 15 8
23 -6 9 -17 11 -17 22 -1 12 16 13 16 20 -1 5 -14 9 -15 21 -5 19 16 60 -8 68
-39 6 -26 -18 -29 -28 -3 -6 16 -7 16 -19 0 -7 -10 -16 -15 -20 -11 -4 4 -4 0
-1 -9 4 -11 -1 -20 -14 -28 -29 -15 -28 -50 1 -50 21 0 21 -1 3 -14 -18 -13
-18 -14 3 -20 12 -4 26 -5 31 -2 5 3 14 -1 21 -9 18 -22 30 -18 30 10 0 14 8
29 20 35 27 15 45 3 28 -18 -10 -12 -10 -16 0 -19 6 -3 12 -13 12 -22 0 -10
12 -23 26 -29 28 -13 24 -32 -6 -32 -29 0 -38 -29 -24 -80 7 -25 13 -37 13
-27 1 24 28 50 44 44 23 -9 72 -133 56 -143 -12 -7 -12 -24 1 -24 6 0 10 5 10
11 0 7 7 17 16 24 13 9 14 16 6 32 -11 20 -7 33 10 33 4 0 8 -7 8 -15 0 -8 7
-15 15 -15 18 0 19 12 3 28 -9 9 -8 12 4 12 17 0 36 -52 20 -58 -5 -1 -18 -9
-28 -17 -18 -13 -18 -15 -1 -32 9 -9 17 -13 17 -8 0 6 17 10 38 10 33 0 37 -3
37 -27 1 -15 9 -36 19 -47 22 -24 18 -67 -6 -65 -10 1 -14 -4 -11 -13 3 -8 17
-13 32 -12 61 5 71 0 71 -30 0 -38 -18 -43 -49 -15 -19 17 -27 20 -33 11 -11
-17 -10 -47 2 -47 6 0 10 -15 11 -32 l1 -33 10 28 c7 21 16 27 39 27 36 0 37
-18 3 -45 l-26 -21 26 -30 c18 -19 29 -25 33 -16 11 28 21 8 17 -40 -3 -40 0
-54 14 -64 21 -17 40 -18 24 -2 -24 24 -13 43 33 54 31 7 46 7 49 0 3 -6 15 1
28 17 26 30 48 35 48 12 0 -8 -4 -15 -9 -15 -11 0 -53 -66 -61 -95 -8 -26 -38
-31 -54 -9 -18 23 -43 12 -43 -20 0 -21 2 -24 18 -16 28 15 77 12 106 -7 l26
-17 -39 -17 -39 -18 32 0 c17 -1 35 -6 39 -12 8 -14 75 -4 86 13 5 9 8 4 8
-14 0 -16 5 -28 11 -28 6 0 8 -9 4 -22 -4 -13 -9 -31 -11 -40 -3 -11 0 -18 9
-18 16 0 40 47 31 62 -4 6 -1 14 6 18 8 5 13 24 12 44 -2 39 15 50 20 14 2
-14 11 -24 24 -26 12 -2 26 -14 32 -28 11 -22 9 -24 -13 -24 -14 0 -25 -4 -25
-10 0 -5 -7 -7 -15 -4 -8 4 -15 1 -15 -5 0 -6 9 -11 20 -11 18 0 25 -15 18
-37 -2 -5 -13 -7 -25 -5 -19 2 -22 -2 -21 -22 2 -19 5 -22 15 -14 26 21 44 1
41 -44 -2 -34 -7 -43 -20 -42 -19 2 -24 -11 -9 -20 4 -3 6 -17 3 -31 -2 -15 0
-25 7 -25 6 0 11 9 11 20 0 11 7 20 15 20 9 0 15 -9 15 -25 0 -14 -4 -25 -10
-25 -5 0 -10 -6 -10 -14 0 -9 12 -13 38 -12 l37 1 -3 -42 c-2 -33 1 -43 13
-43 9 0 15 9 15 26 0 14 4 23 10 19 6 -3 10 -1 10 4 0 12 -41 56 -52 56 -5 0
-8 3 -8 8 0 4 0 11 0 16 0 13 83 1 95 -14 6 -6 8 -35 7 -64 -3 -42 -7 -51 -23
-51 -11 0 -19 -7 -19 -16 0 -13 7 -15 41 -9 41 7 42 7 35 -19 -5 -22 -1 -32
24 -52 16 -14 30 -33 30 -42 1 -10 6 -27 13 -40 l13 -23 12 27 c11 22 10 28
-5 40 -10 7 -13 14 -8 14 6 0 3 5 -5 10 -21 13 -3 27 48 35 28 4 42 3 42 -4 0
-6 -10 -11 -23 -11 -37 0 -47 -17 -32 -54 7 -17 10 -37 8 -43 -3 -8 4 -13 15
-13 13 0 22 8 25 23 3 13 5 7 6 -17 1 -33 -1 -37 -16 -31 -49 21 -143 6 -143
-22 0 -16 10 -16 46 -3 36 14 106 -14 128 -52 l16 -27 -52 3 c-29 2 -36 1 -15
-1 32 -4 37 -8 37 -30 0 -16 7 -27 20 -30 24 -6 26 -26 4 -44 -12 -10 -17 -10
-23 0 -6 9 -11 8 -21 -4 -12 -15 -12 -18 2 -26 16 -9 18 -54 4 -77 -9 -14 3
-62 16 -62 5 0 7 9 3 19 -3 11 -1 22 5 26 7 4 7 12 -1 26 -7 15 -7 24 1 34 7
9 8 15 0 20 -21 13 -9 20 39 23 33 2 52 -2 61 -13 10 -13 7 -14 -26 -12 -38 2
-38 2 -39 -35 0 -43 6 -47 27 -16 15 22 15 22 31 -12 9 -18 17 -37 17 -42 0
-11 -28 -10 -32 2 -1 5 -8 6 -15 2 -8 -5 -3 -20 18 -52 38 -56 36 -55 52 -42
7 7 18 7 27 2 9 -6 18 -3 25 6 9 13 13 13 30 0 12 -9 15 -15 7 -16 -7 0 -10
-5 -7 -11 5 -6 12 -4 21 8 13 17 13 17 14 -4 0 -12 -5 -25 -11 -29 -7 -4 -9
-21 -6 -43 6 -33 5 -34 -8 -17 -8 11 -15 23 -15 28 0 4 -13 8 -30 8 -16 0 -30
-4 -30 -10 0 -5 5 -10 10 -10 12 0 13 -50 1 -69 -6 -9 -11 -10 -15 -2 -15 23
-26 -2 -22 -49 4 -61 19 -82 50 -70 13 4 29 4 39 -1 11 -7 17 -6 17 1 0 6 16
-1 35 -16 19 -14 35 -35 35 -45 0 -11 7 -19 16 -19 9 0 28 -10 43 -23 25 -20
26 -25 13 -37 -12 -11 -17 -11 -20 -2 -2 7 -14 12 -27 12 -18 0 -25 7 -32 38
-7 28 -14 38 -32 40 -21 3 -23 1 -17 -22 3 -13 2 -28 -4 -31 -5 -3 -10 -13
-10 -21 0 -10 12 -14 40 -14 25 0 40 -5 40 -12 1 -23 36 -62 44 -49 6 9 11 9
22 0 11 -9 14 -9 14 1 0 8 7 21 16 31 8 9 16 28 17 43 1 14 6 27 12 28 14 4
19 -31 6 -56 -5 -11 -11 -32 -13 -46 -3 -22 -7 -25 -36 -22 -50 4 -70 -11 -64
-47 4 -26 1 -31 -17 -31 -20 0 -26 14 -22 48 1 7 -10 12 -29 12 -20 0 -30 5
-30 15 0 8 -5 15 -11 15 -6 0 -8 -7 -5 -16 3 -9 6 -19 6 -24 0 -4 8 -7 18 -6
13 1 16 -5 14 -26 -2 -23 2 -29 30 -36 36 -9 53 1 59 33 5 25 25 30 33 9 5
-12 -2 -25 -20 -41 l-28 -23 25 2 c16 2 24 -2 24 -12 0 -19 -50 -16 -91 5 -55
29 -76 12 -24 -18 17 -10 38 -16 48 -13 10 4 27 0 37 -8 17 -12 25 -11 63 10
24 13 49 21 55 17 7 -4 18 -8 26 -8 8 0 20 -21 28 -47 7 -27 18 -48 23 -48 6
0 10 -4 10 -10 0 -14 -30 -12 -59 4 -19 11 -21 14 -7 19 15 6 23 57 10 70 -3
3 -25 -5 -49 -19 -24 -13 -52 -24 -62 -25 -12 0 -9 -4 9 -10 24 -9 26 -13 17
-35 -12 -34 -13 -33 19 -31 24 2 27 -1 25 -25 -1 -16 2 -28 8 -28 5 0 9 9 9
20 0 11 6 20 13 20 6 0 23 3 37 7 24 6 24 6 7 -14 -17 -20 -14 -33 10 -33 8 0
13 12 13 30 l0 30 27 -17 c15 -10 34 -18 42 -18 9 0 15 -7 13 -16 -1 -10 6
-19 18 -22 16 -4 30 -37 16 -37 -16 0 -36 14 -36 25 0 8 -14 21 -32 29 -39 20
-38 20 -38 -4 0 -11 -4 -20 -10 -20 -5 0 -10 -7 -10 -15 0 -17 25 -20 35 -5
11 18 27 11 20 -9 -3 -12 0 -21 10 -25 19 -7 19 -20 -1 -40 -21 -22 -37 -20
-29 3 7 24 -4 32 -34 24 -20 -5 -21 -7 -5 -24 9 -10 16 -34 17 -53 1 -31 4
-36 24 -36 13 0 27 8 30 18 4 9 12 22 18 28 15 15 85 23 85 9 0 -12 -36 -38
-65 -45 -11 -3 -20 -12 -20 -20 0 -19 37 -14 48 6 11 19 47 18 47 -1 0 -8 -7
-15 -15 -15 -9 0 -18 -7 -21 -15 -4 -8 -17 -15 -30 -15 -26 0 -32 -15 -10 -23
8 -3 20 1 26 9 14 16 56 19 65 4 3 -5 1 -10 -6 -10 -20 0 -48 -31 -42 -46 3
-8 12 -14 20 -14 8 0 13 -6 10 -13 -8 -21 -17 -63 -11 -49 5 10 10 10 24 -3
21 -19 60 -12 60 11 0 8 7 17 15 20 17 7 50 -22 35 -31 -5 -3 -10 -1 -10 4 0
21 -30 10 -36 -13 -4 -16 -20 -29 -49 -42 -59 -24 -48 -35 20 -19 52 12 59 11
56 -8 -1 -4 6 -10 14 -13 33 -13 13 -25 -30 -18 -36 5 -46 3 -51 -10 -8 -20
-33 -21 -40 -1 -9 22 -24 18 -24 -5 0 -11 -4 -20 -10 -20 -5 0 -10 -7 -10 -15
0 -20 17 -19 28 1 6 10 12 13 16 6 6 -11 65 12 77 31 8 12 48 -13 55 -35 3
-10 -4 -31 -15 -47 -26 -37 -26 -45 -1 -31 18 10 20 8 20 -20 0 -29 9 -38 24
-23 4 4 32 8 62 9 44 2 54 -1 54 -15 0 -9 -13 -25 -30 -34 -26 -16 -28 -20
-17 -37 14 -23 35 -26 43 -6 8 21 34 28 50 15 11 -9 15 -7 20 5 9 24 -4 49
-21 42 -13 -4 -13 -2 -5 14 5 10 7 26 4 34 -3 9 -1 16 5 16 6 0 11 -8 11 -19
0 -10 7 -24 15 -31 8 -7 15 -19 15 -27 0 -7 7 -16 15 -19 18 -7 20 -25 3 -22
-6 2 -14 -6 -16 -17 -2 -11 -13 -30 -24 -42 -23 -25 -17 -43 12 -36 11 3 20 1
21 -3 7 -56 6 -83 -3 -102 -14 -28 4 -45 38 -37 14 3 29 -4 43 -19 24 -25 22
-29 -21 -40 -30 -7 -36 2 -16 22 12 12 2 17 -29 13 -16 -2 -46 14 -67 34 -13
13 -15 13 -21 -4 -3 -10 -15 -21 -26 -24 -35 -9 -12 -25 46 -32 58 -8 67 -17
35 -37 -11 -7 -20 -21 -20 -30 0 -21 16 -24 23 -5 3 9 7 9 20 -2 22 -18 15
-27 -28 -35 -20 -4 -39 -14 -42 -22 -7 -19 -23 -18 -23 2 0 9 -5 12 -12 8 -8
-5 -4 -13 10 -25 20 -16 21 -19 6 -33 -8 -9 -20 -16 -25 -16 -5 0 -9 -4 -9 -9
0 -5 14 -4 31 2 22 9 29 17 27 32 -3 16 1 20 23 21 22 1 25 -3 21 -19 -5 -18
-2 -19 31 -13 38 7 56 -6 38 -28 -8 -10 -2 -16 29 -25 22 -6 40 -15 40 -19 0
-17 -26 -32 -57 -32 -45 0 -83 -19 -76 -38 5 -12 1 -14 -20 -8 -20 5 -27 3
-27 -9 0 -11 10 -15 36 -15 24 0 34 -4 31 -12 -2 -7 -1 -23 4 -34 9 -25 1 -64
-13 -64 -5 0 -8 10 -7 23 3 37 0 57 -11 57 -5 0 -9 -10 -7 -22 2 -19 -3 -23
-33 -23 -19 -1 -45 3 -58 9 -28 12 -53 -7 -34 -26 17 -17 15 -63 -3 -78 -12
-10 -16 -9 -21 4 -9 22 -24 20 -24 -4 0 -11 7 -20 15 -20 8 0 15 -9 15 -20 0
-27 -11 -25 -43 8 -30 31 -36 62 -11 62 8 0 12 5 9 10 -11 17 -56 -22 -50 -44
2 -11 -1 -26 -7 -33 -16 -19 -2 -28 18 -12 18 15 17 12 -5 -33 -18 -35 -40
-37 -33 -3 3 17 0 25 -9 25 -8 0 -24 3 -35 6 -17 4 -22 0 -26 -20 -5 -27 9
-35 29 -15 19 19 37 -26 21 -51 -11 -17 -10 -22 2 -30 13 -9 13 -10 -1 -10 -8
0 -21 16 -29 35 -15 37 -27 40 -44 11 -8 -14 -8 -20 2 -23 24 -9 12 -25 -13
-19 -39 10 -53 -5 -19 -19 l29 -12 -24 -8 c-19 -6 -29 -3 -42 14 -9 11 -22 21
-28 21 -6 0 -11 5 -11 10 0 6 5 10 10 10 6 0 10 7 10 15 0 9 7 18 16 22 13 5
13 7 2 14 -26 17 -45 9 -51 -18 -3 -16 -8 -35 -12 -43 -3 -9 4 -26 16 -39 13
-14 18 -26 12 -32 -6 -6 -20 2 -37 21 -33 37 -50 35 -54 -8 -2 -24 -8 -32 -23
-32 -21 0 -25 10 -9 26 8 8 6 15 -5 24 -14 11 -17 10 -22 -8 -3 -12 -14 -24
-24 -27 -15 -5 -17 -10 -9 -25 14 -26 13 -30 -10 -30 -11 0 -20 -7 -20 -16 0
-8 -4 -12 -10 -9 -5 3 -10 17 -10 30 0 12 -7 26 -16 29 -13 5 -15 1 -11 -21 7
-39 -2 -58 -18 -37 -16 23 -45 11 -45 -18 0 -13 -9 -29 -21 -36 -27 -17 -32
-11 -20 20 5 15 6 30 0 39 -7 11 -9 9 -9 -8 0 -27 -21 -35 -37 -14 -11 14 -13
14 -27 -4 -8 -11 -18 -32 -21 -46 -3 -14 -16 -32 -28 -38 -25 -13 -55 -31 -77
-46 -8 -6 -38 -11 -66 -11 -76 -2 -130 -38 -104 -69 10 -12 9 -15 -5 -15 -10
0 -23 7 -30 16 -9 13 -16 14 -29 7 -10 -5 -17 -14 -16 -19 0 -5 -9 -11 -21
-12 -18 -3 -21 0 -16 17 5 20 4 20 -27 3 -17 -9 -40 -20 -51 -23 -17 -6 -16
-7 7 -8 43 -2 41 -18 -3 -25 -25 -4 -46 -2 -54 4 -10 8 -18 3 -35 -20 -25 -35
-40 -39 -40 -9 0 18 -4 20 -26 15 -15 -4 -32 -2 -40 5 -11 9 -15 8 -19 -3 -7
-17 -2 -48 9 -67 7 -11 -1 -12 -42 -6 -32 4 -52 3 -57 -4 -4 -7 3 -11 17 -12
22 0 22 -1 3 -9 -13 -5 -26 -3 -36 6 -18 17 -33 18 -24 3 15 -23 -66 -55 -127
-50 -14 1 -29 -2 -33 -8 -3 -6 -18 -11 -32 -11 -15 0 -23 -3 -19 -7 9 -9 -108
-46 -151 -47 -17 -1 -30 -3 -27 -5 6 -6 -46 -31 -66 -31 -9 0 -53 -11 -96 -25
-43 -14 -108 -32 -144 -40 -105 -23 -168 -40 -176 -48 -4 -4 -17 -7 -29 -7
-11 0 -25 -4 -31 -10 -5 -5 -30 -14 -54 -19 -25 -5 -81 -19 -125 -31 -44 -12
-93 -26 -110 -31 -16 -4 -55 -16 -85 -25 -30 -9 -77 -21 -105 -26 -27 -6 -59
-14 -70 -19 -23 -9 -174 -54 -253 -75 -28 -7 -76 -20 -105 -28 -223 -61 -279
-76 -327 -91 -30 -9 -77 -22 -105 -30 -27 -7 -93 -26 -145 -40 -52 -15 -120
-34 -150 -42 -30 -8 -64 -18 -75 -22 -26 -11 -102 -31 -140 -38 -16 -2 -44
-11 -62 -19 -17 -8 -43 -14 -57 -14 -14 0 -43 -6 -63 -14 -21 -8 -92 -28 -158
-46 -66 -17 -129 -35 -140 -40 -12 -4 -61 -17 -110 -29 -111 -26 -194 -50
-218 -62 -10 -6 -37 -14 -60 -19 -73 -15 -131 -31 -148 -40 -9 -5 -34 -12 -55
-15 -22 -4 -66 -16 -99 -27 -33 -11 -78 -24 -100 -28 -22 -5 -58 -13 -80 -19
-52 -14 -150 -14 -200 0 -41 11 -106 39 -115 49 -3 3 -21 17 -40 32 -41 31
-100 85 -100 91 0 3 -16 28 -35 57 -19 29 -35 56 -35 61 0 4 -10 32 -23 61
-36 81 -53 125 -87 223 -17 50 -37 106 -45 125 -8 19 -35 96 -60 170 -26 74
-50 144 -55 155 -10 20 -21 51 -65 180 -13 39 -38 108 -55 155 -18 47 -39 108
-47 135 -8 28 -19 54 -24 59 -5 6 -9 18 -9 28 0 10 -4 26 -9 36 -5 9 -23 55
-39 102 -16 47 -44 124 -61 173 -17 48 -45 126 -62 175 -17 48 -35 96 -40 107
-12 29 -39 105 -49 140 -4 17 -18 55 -30 85 -12 30 -32 87 -45 125 -60 172
-81 231 -87 240 -3 6 -9 25 -13 43 -4 18 -13 45 -21 60 -8 15 -14 35 -14 44 0
9 -4 19 -9 22 -5 3 -12 18 -15 33 -7 26 -58 174 -76 218 -5 11 -18 49 -30 85
-11 36 -24 74 -29 85 -16 37 -71 191 -71 199 0 4 -6 22 -14 39 -8 18 -16 41
-19 52 -3 11 -20 58 -37 105 -17 47 -39 110 -50 140 -24 71 -63 180 -90 250
-12 30 -26 69 -30 85 -5 17 -15 48 -24 70 -36 98 -109 303 -118 335 -6 19 -14
40 -18 45 -4 6 -11 26 -15 45 -4 19 -12 41 -16 50 -5 8 -34 85 -63 170 -77
221 -78 223 -87 245 -8 19 -33 90 -84 240 -13 39 -33 95 -45 125 -12 30 -26
71 -32 90 -5 19 -14 40 -18 45 -4 6 -10 21 -13 35 -6 27 -23 78 -44 127 -7 17
-13 37 -13 45 0 8 -3 17 -6 21 -4 3 -17 39 -30 79 -14 40 -31 89 -39 108 -7
19 -28 76 -45 125 -17 50 -35 99 -40 110 -4 11 -18 49 -30 85 -12 36 -26 74
-30 85 -5 11 -13 34 -18 50 -10 31 -79 223 -152 425 -23 63 -48 133 -55 155
-19 57 -68 195 -105 295 -17 47 -40 112 -51 145 -11 33 -24 69 -29 80 -39 86
-106 313 -115 387 -9 73 9 154 36 161 10 3 19 12 19 20 0 18 35 11 92 -17z
m973 -216 c-3 -5 -13 -10 -21 -10 -8 0 -12 5 -9 10 3 6 13 10 21 10 8 0 12 -4
9 -10z m155 -30 c0 -5 -7 -10 -16 -10 -8 0 -12 5 -9 10 3 6 10 10 16 10 5 0 9
-4 9 -10z m130 0 c12 -8 11 -10 -7 -10 -13 0 -23 5 -23 10 0 13 11 13 30 0z
m248 -44 c4 -16 0 -18 -28 -12 -18 3 -41 6 -51 6 -14 0 -18 6 -15 23 3 12 5
23 5 24 1 1 20 -4 43 -11 28 -7 44 -18 46 -30z m-158 19 c0 -8 -9 -15 -20 -15
-20 0 -26 11 -13 23 12 13 33 7 33 -8z m699 -4 c11 -7 9 -11 -9 -21 -25 -14
-33 -9 -24 14 7 18 13 19 33 7z m-464 -21 c0 -8 -8 -16 -17 -18 -13 -2 -18 3
-18 18 0 15 5 20 18 18 9 -2 17 -10 17 -18z m165 4 c0 -8 -5 -12 -10 -9 -6 4
-8 11 -5 16 9 14 15 11 15 -7z m210 -4 c0 -5 -4 -10 -10 -10 -5 0 -10 5 -10
10 0 6 5 10 10 10 6 0 10 -4 10 -10z m230 -6 c0 -11 -5 -14 -16 -10 -9 3 -18
6 -20 6 -3 0 -2 5 1 10 10 16 35 12 35 -6z m270 -15 c0 -11 5 -17 10 -14 6 3
10 1 10 -5 0 -7 -7 -9 -16 -6 -9 3 -18 6 -20 6 -2 0 -4 12 -4 26 0 14 4 23 10
19 6 -3 10 -15 10 -26z m350 10 c0 -4 -9 -10 -19 -14 -10 -3 -21 -15 -24 -25
-6 -22 -27 -27 -27 -7 0 23 30 56 50 54 11 -1 20 -4 20 -8z m-652 -18 c11 -7
11 -9 -2 -14 -19 -7 -46 1 -46 14 0 11 31 11 48 0z m1082 -1 c0 -5 -5 -10 -11
-10 -5 0 -7 5 -4 10 3 6 8 10 11 10 2 0 4 -4 4 -10z m400 0 c0 -5 -2 -10 -4
-10 -3 0 -8 5 -11 10 -3 6 -1 10 4 10 6 0 11 -4 11 -10z m-1060 -16 c0 -8 -5
-12 -10 -9 -6 4 -8 11 -5 16 9 14 15 11 15 -7z m786 -30 c-4 -12 -10 -14 -17
-7 -5 5 -7 17 -3 27 4 12 10 14 17 7 5 -5 7 -17 3 -27z m-98 7 c12 -7 12 -12
1 -30 -16 -25 -29 -27 -29 -6 0 19 -18 20 -22 0 -2 -10 -6 -8 -14 9 -9 20 -8
23 6 19 10 -3 21 0 24 6 8 13 16 14 34 2z m707 -11 c3 -5 -1 -10 -9 -10 -9 0
-16 5 -16 10 0 6 4 10 9 10 6 0 13 -4 16 -10z m-558 -36 c-3 -3 -12 -4 -19 -1
-8 3 -5 6 6 6 11 1 17 -2 13 -5z m356 -10 c3 -11 -39 -18 -61 -9 -14 5 -14 7
-2 15 18 12 60 8 63 -6z m87 -84 c0 -11 -2 -20 -4 -20 -11 0 -36 33 -36 46 0
12 4 12 20 4 11 -6 20 -20 20 -30z m50 30 c0 -5 -2 -10 -4 -10 -3 0 -8 5 -11
10 -3 6 -1 10 4 10 6 0 11 -4 11 -10z m160 -45 c0 -3 -8 -5 -19 -5 -13 0 -18
7 -18 26 0 25 0 25 18 5 11 -11 19 -23 19 -26z m685 35 c3 -5 2 -10 -4 -10 -5
0 -13 5 -16 10 -3 6 -2 10 4 10 5 0 13 -4 16 -10z m-555 -10 c0 -5 -5 -10 -11
-10 -5 0 -7 5 -4 10 3 6 8 10 11 10 2 0 4 -4 4 -10z m95 0 l20 -9 -20 0 c-11
0 -29 4 -40 9 l-20 9 20 0 c11 0 29 -4 40 -9z m155 -5 c0 -8 -4 -15 -8 -15 -5
0 -9 7 -9 15 0 8 4 15 9 15 4 0 8 -7 8 -15z m-80 -23 c-14 -2 -29 -8 -34 -13
-12 -11 -26 -12 -26 -1 0 13 44 28 65 23 18 -5 17 -6 -5 -9z m285 -12 c-3 -5
-10 -10 -16 -10 -5 0 -9 5 -9 10 0 6 7 10 16 10 8 0 12 -4 9 -10z m-65 -15 c0
-8 -4 -15 -9 -15 -13 0 -22 16 -14 24 11 11 23 6 23 -9z m140 -14 c0 -5 -7
-11 -15 -15 -15 -5 -20 5 -8 17 9 10 23 9 23 -2z m247 -13 c-3 -8 -6 -5 -6 6
-1 11 2 17 5 13 3 -3 4 -12 1 -19z m-677 -9 c0 -7 18 -9 48 -7 37 2 47 0 47
-12 0 -12 -13 -15 -55 -15 -49 0 -55 2 -58 23 -2 12 1 22 7 22 6 0 11 -5 11
-11z m372 -1 c-9 -9 -15 -9 -24 0 -9 9 -7 12 12 12 19 0 21 -3 12 -12z m244
-25 c-10 -10 -19 5 -10 18 6 11 8 11 12 0 2 -7 1 -15 -2 -18z m-26 8 c0 -6 -4
-13 -10 -16 -5 -3 -10 1 -10 9 0 9 5 16 10 16 6 0 10 -4 10 -9z m-537 -46 c-1
-5 -11 -12 -22 -17 -17 -6 -21 -3 -21 13 0 15 5 20 23 17 12 -2 21 -7 20 -13z
m652 -65 c3 -5 -3 -10 -14 -10 -12 0 -21 5 -21 10 0 6 6 10 14 10 8 0 18 -4
21 -10z m539 1 c4 -5 3 -16 0 -25 -5 -12 -9 -13 -19 -3 -7 6 -10 18 -8 24 6
15 19 17 27 4z m-164 -41 c0 -5 -8 -10 -17 -11 -14 0 -13 -2 5 -9 12 -5 22
-17 22 -26 0 -11 -5 -14 -17 -9 -10 4 -24 8 -30 8 -18 1 -16 17 4 39 18 20 33
24 33 8z m725 0 c3 -5 1 -10 -4 -10 -6 0 -11 5 -11 10 0 6 2 10 4 10 3 0 8 -4
11 -10z m-867 -32 c-4 -28 -24 -34 -31 -9 -6 22 0 31 20 31 9 0 13 -8 11 -22z
m82 -23 c0 -8 -6 -15 -14 -15 -20 0 -29 17 -14 23 22 9 28 7 28 -8z m537 -1
c-3 -3 -12 -4 -19 -1 -8 3 -5 6 6 6 11 1 17 -2 13 -5z m-458 -45 c-11 -8 -9
-13 9 -29 l23 -19 -31 -16 c-31 -16 -70 -7 -70 16 0 7 -14 10 -35 7 -19 -2
-35 0 -35 4 0 5 -12 5 -26 2 -21 -5 -25 -4 -20 7 3 8 9 22 12 32 8 21 24 23
24 2 0 -22 69 -20 85 2 11 15 15 15 30 3 15 -12 18 -12 28 5 8 14 12 16 15 6
2 -7 -2 -17 -9 -22z m241 -4 c0 -8 -4 -15 -10 -15 -5 0 -10 7 -10 15 0 8 5 15
10 15 6 0 10 -7 10 -15z m-62 -17 c18 -18 15 -25 -12 -25 -18 0 -22 4 -19 18
6 22 14 24 31 7z m265 -50 c-2 -4 -12 0 -23 9 -15 13 -17 20 -8 30 9 11 13 9
23 -9 6 -13 10 -26 8 -30z m277 42 c0 -5 -5 -10 -11 -10 -5 0 -7 5 -4 10 3 6
8 10 11 10 2 0 4 -4 4 -10z m-440 -10 c13 -8 13 -10 -2 -10 -9 0 -20 5 -23 10
-8 13 5 13 25 0z m-453 -32 c6 -5 14 -5 18 2 10 16 27 12 23 -7 -6 -30 -98
-22 -98 8 0 10 42 8 57 -3z m693 8 c0 -3 -4 -8 -10 -11 -5 -3 -10 -1 -10 4 0
6 5 11 10 11 6 0 10 -2 10 -4z m-85 -45 c-3 -6 -14 -11 -23 -11 -15 1 -15 2 2
15 21 16 32 13 21 -4z m75 -3 c0 -19 -2 -20 -10 -8 -13 19 -13 30 0 30 6 0 10
-10 10 -22z m-235 2 c3 -5 -1 -10 -10 -10 -9 0 -13 5 -10 10 3 6 8 10 10 10 2
0 7 -4 10 -10z m82 -6 c-3 -3 -12 -4 -19 -1 -8 3 -5 6 6 6 11 1 17 -2 13 -5z
m258 -4 c-3 -5 -10 -10 -16 -10 -5 0 -9 5 -9 10 0 6 7 10 16 10 8 0 12 -4 9
-10z m165 -5 c0 -8 -4 -15 -10 -15 -5 0 -7 7 -4 15 4 8 8 15 10 15 2 0 4 -7 4
-15z m-225 -5 c3 -5 -1 -10 -10 -10 -9 0 -13 5 -10 10 3 6 8 10 10 10 2 0 7
-4 10 -10z m185 -10 c0 -5 -7 -10 -16 -10 -8 0 -12 5 -9 10 3 6 10 10 16 10 5
0 9 -4 9 -10z m-250 -10 c0 -5 -7 -10 -15 -10 -8 0 -15 5 -15 10 0 6 7 10 15
10 8 0 15 -4 15 -10z m-135 -30 c-28 -12 -55 -12 -55 0 0 6 17 10 38 9 30 0
33 -2 17 -9z m152 -6 c-3 -3 -12 -4 -19 -1 -8 3 -5 6 6 6 11 1 17 -2 13 -5z
m103 -8 c0 -3 -4 -8 -10 -11 -5 -3 -10 -1 -10 4 0 6 5 11 10 11 6 0 10 -2 10
-4z m-49 -25 c-11 -19 -51 -36 -51 -21 0 5 -2 14 -5 22 -4 9 6 14 30 16 32 2
35 0 26 -17z m596 -23 c-3 -8 -6 -5 -6 6 -1 11 2 17 5 13 3 -3 4 -12 1 -19z
m-349 -27 c3 -8 -1 -12 -9 -9 -7 2 -15 10 -17 17 -3 8 1 12 9 9 7 -2 15 -10
17 -17z m102 -21 c0 -5 -7 -10 -15 -10 -8 0 -15 5 -15 10 0 6 7 10 15 10 8 0
15 -4 15 -10z m136 -75 c-1 -25 -26 -36 -26 -12 0 11 19 37 26 37 1 0 1 -11 0
-25z m124 -39 c0 -3 -4 -8 -10 -11 -5 -3 -10 -1 -10 4 0 6 5 11 10 11 6 0 10
-2 10 -4z m-224 -51 c-22 -17 -36 -19 -36 -7 0 14 12 22 34 22 21 -1 21 -1 2
-15z m146 -27 c-9 -9 -15 -9 -24 0 -9 9 -7 12 12 12 19 0 21 -3 12 -12z m-75
-34 c-3 -3 -12 -4 -19 -1 -8 3 -5 6 6 6 11 1 17 -2 13 -5z m121 -14 c-15 -23
-28 -26 -28 -7 0 17 10 27 27 27 11 0 11 -4 1 -20z m-218 -17 c0 -5 -4 -14 -9
-21 -7 -11 -9 -11 -14 1 -3 8 -3 18 0 21 9 8 23 7 23 -1z m300 -23 c0 -5 -4
-10 -10 -10 -5 0 -10 5 -10 10 0 6 5 10 10 10 6 0 10 -4 10 -10z m-337 -64 c4
-11 16 -13 41 -9 34 5 36 4 34 -21 -1 -14 -8 -26 -15 -26 -19 0 -16 -7 16 -37
15 -16 26 -33 24 -40 -3 -7 3 -10 14 -7 19 5 26 45 11 60 -14 13 -8 44 7 44 9
0 15 -9 15 -25 0 -14 7 -37 16 -50 13 -20 14 -28 4 -40 -7 -8 -20 -15 -29 -15
-10 0 -26 -7 -37 -15 -45 -34 -74 -5 -74 74 0 45 -22 70 -44 52 -19 -16 -32 5
-16 24 7 8 10 22 6 30 -3 9 0 15 8 15 8 0 16 -7 19 -14z m272 -16 c-6 -9 -9
-9 -16 1 -10 17 0 34 13 21 6 -6 7 -16 3 -22z m-78 -16 c-9 -9 -28 6 -21 18 4
6 10 6 17 -1 6 -6 8 -13 4 -17z m223 16 c0 -5 -4 -10 -10 -10 -5 0 -10 5 -10
10 0 6 5 10 10 10 6 0 10 -4 10 -10z m70 -40 c0 -5 -4 -10 -10 -10 -5 0 -10 5
-10 10 0 6 5 10 10 10 6 0 10 -4 10 -10z m-226 -110 c-23 -39 -74 -77 -74 -55
0 8 6 15 14 15 8 0 18 9 21 20 3 11 13 20 22 20 13 0 13 3 3 15 -10 12 -10 18
1 31 11 14 13 14 21 0 6 -11 3 -26 -8 -46z m86 45 c0 -1 -9 -5 -20 -8 -12 -3
-20 0 -20 8 0 8 8 11 20 8 11 -3 20 -7 20 -8z m45 6 c3 -5 1 -12 -5 -16 -5 -3
-10 1 -10 9 0 18 6 21 15 7z m130 -1 c3 -5 -1 -10 -10 -10 -9 0 -13 5 -10 10
3 6 8 10 10 10 2 0 7 -4 10 -10z m-305 -35 c0 -8 -7 -15 -15 -15 -16 0 -20 12
-8 23 11 12 23 8 23 -8z m118 -31 c-4 -21 -58 -29 -58 -9 0 13 17 21 48 24 8
0 12 -6 10 -15z m202 -4 c0 -5 -7 -10 -15 -10 -8 0 -15 5 -15 10 0 6 7 10 15
10 8 0 15 -4 15 -10z m-90 -24 c0 -9 -30 -14 -35 -6 -4 6 3 10 14 10 12 0 21
-2 21 -4z m230 -6 c0 -5 -4 -10 -10 -10 -5 0 -10 5 -10 10 0 6 5 10 10 10 6 0
10 -4 10 -10z m-281 -94 c16 -19 -3 -68 -23 -60 -21 8 -30 42 -16 59 15 19 24
19 39 1z m341 -89 c-4 -5 -25 -7 -46 -5 l-39 4 28 12 c15 6 27 16 27 22 0 5 8
2 19 -7 10 -10 15 -22 11 -26z m-113 -11 c-2 -6 -22 -11 -44 -12 -22 0 -47 -4
-56 -7 -26 -10 -20 17 6 28 29 13 99 7 94 -9z m93 -30 c0 -3 -4 -8 -10 -11 -5
-3 -10 -1 -10 4 0 6 5 11 10 11 6 0 10 -2 10 -4z m143 -3 c-7 -2 -21 -2 -30 0
-10 3 -4 5 12 5 17 0 24 -2 18 -5z m-213 -13 c0 -5 -4 -10 -10 -10 -5 0 -10 5
-10 10 0 6 5 10 10 10 6 0 10 -4 10 -10z m-30 -19 c0 -4 -5 -12 -11 -18 -9 -9
-16 -8 -27 4 -12 12 -13 16 -2 23 14 9 40 3 40 -9z m84 -10 c11 -12 14 -21 7
-26 -17 -10 5 -42 34 -49 28 -7 34 -36 8 -36 -10 0 -30 8 -45 18 -22 15 -25
21 -15 31 9 10 9 15 0 18 -7 2 -10 10 -7 18 3 7 1 16 -5 20 -13 7 -15 25 -3
25 5 0 17 -9 26 -19z m77 -4 c-1 -12 -15 -9 -19 4 -3 6 1 10 8 8 6 -3 11 -8
11 -12z m-115 -32 c4 -14 3 -29 0 -33 -11 -11 -39 13 -43 36 -5 33 35 30 43
-3z m-106 5 c0 -5 -7 -10 -16 -10 -8 0 -12 5 -9 10 3 6 10 10 16 10 5 0 9 -4
9 -10z m273 -104 c3 -8 0 -17 -8 -19 -15 -7 -25 1 -25 20 0 17 26 17 33 -1z
m107 -1 c-7 -8 -17 -15 -22 -15 -11 0 14 29 26 30 5 0 3 -7 -4 -15z m-115 -85
c3 -5 -1 -10 -9 -10 -9 0 -16 5 -16 10 0 6 4 10 9 10 6 0 13 -4 16 -10z m15
-61 c0 -5 -4 -7 -10 -4 -6 4 -10 -6 -10 -22 0 -15 -5 -35 -10 -43 -8 -12 -10
-10 -10 10 0 40 11 70 26 70 8 0 14 -5 14 -11z m40 -14 c0 -8 -2 -15 -4 -15
-2 0 -6 7 -10 15 -3 8 -1 15 4 15 6 0 10 -7 10 -15z m75 -35 c3 -5 -3 -10 -14
-10 -12 0 -21 5 -21 10 0 6 6 10 14 10 8 0 18 -4 21 -10z m-67 -68 c-3 -22 0
-45 7 -55 17 -24 71 -22 85 3 6 12 20 20 33 19 17 -1 18 -2 5 -6 -10 -2 -18
-8 -18 -12 0 -14 24 -31 44 -31 12 0 16 -3 11 -9 -6 -5 -40 -6 -80 -2 -38 5
-73 7 -76 5 -3 -2 -5 -19 -4 -38 2 -24 -2 -36 -13 -41 -23 -9 -38 11 -22 30
15 18 18 85 6 138 -7 32 -6 37 9 37 15 0 17 -7 13 -38z m138 7 c3 -5 -9 -9
-25 -9 -29 0 -39 9 -25 22 7 8 43 -2 50 -13z m-72 -16 c8 -21 -10 -41 -24 -27
-11 11 -3 44 10 44 4 0 11 -8 14 -17z m166 1 c0 -8 -4 -12 -10 -9 -5 3 -10 10
-10 16 0 5 5 9 10 9 6 0 10 -7 10 -16z m-320 -49 c0 -8 -4 -15 -10 -15 -5 0
-10 7 -10 15 0 8 5 15 10 15 6 0 10 -7 10 -15z m329 -56 c-8 -5 -30 -9 -49 -9
-46 0 -22 16 26 17 25 1 33 -2 23 -8z m-121 -17 c2 -7 -3 -12 -12 -12 -9 0
-16 7 -16 16 0 17 22 14 28 -4z m299 -14 c-3 -8 -6 -5 -6 6 -1 11 2 17 5 13 3
-3 4 -12 1 -19z m-377 -12 c0 -3 -4 -8 -10 -11 -5 -3 -10 -1 -10 4 0 6 5 11
10 11 6 0 10 -2 10 -4z m195 -6 c3 -5 -1 -10 -9 -10 -9 0 -16 5 -16 10 0 6 4
10 9 10 6 0 13 -4 16 -10z m-85 -10 c0 -13 -28 -25 -38 -16 -3 4 0 11 8 16 20
13 30 12 30 0z m-50 -20 c0 -6 -6 -12 -12 -14 -7 -2 -28 -8 -45 -14 -42 -13
-47 9 -5 25 36 14 62 15 62 3z m280 -57 c0 -14 -6 -12 -29 12 -16 17 -24 33
-18 36 13 9 47 -27 47 -48z m-147 7 c3 -11 1 -20 -4 -20 -5 0 -9 9 -9 20 0 11
2 20 4 20 2 0 6 -9 9 -20z m-27 -45 c7 -29 1 -41 -15 -30 -14 8 -14 55 -1 55
5 0 12 -11 16 -25z m118 -43 c-21 -5 -46 6 -40 17 4 5 16 4 31 -2 18 -9 20
-13 9 -15z m53 2 c-3 -3 -12 -4 -19 -1 -8 3 -5 6 6 6 11 1 17 -2 13 -5z m-138
-17 c-11 -8 -14 -18 -8 -32 14 -36 10 -45 -21 -45 -24 0 -30 4 -30 21 0 25 37
67 60 68 13 0 13 -1 -1 -12z m201 -95 c0 -7 -4 -10 -10 -7 -5 3 -10 16 -10 28
0 18 2 19 10 7 5 -8 10 -21 10 -28z m-17 -94 c5 -38 -1 -60 -14 -52 -5 3 -7 9
-4 14 3 5 1 11 -5 15 -5 3 -10 17 -10 31 0 36 27 30 33 -8z m64 -25 c13 -10
12 -15 -2 -42 -8 -17 -22 -31 -30 -31 -18 0 -9 26 11 34 19 7 18 36 -1 36 -17
0 -18 2 -8 26 5 14 8 15 11 3 2 -7 11 -19 19 -26z m43 -37 c0 -2 -7 -6 -15
-10 -8 -3 -15 -1 -15 4 0 6 7 10 15 10 8 0 15 -2 15 -4z m144 -11 c-4 -8 -8
-15 -10 -15 -2 0 -4 7 -4 15 0 8 4 15 10 15 5 0 7 -7 4 -15z m-165 -61 c-9
-11 -8 -18 1 -29 9 -11 10 -19 2 -27 -14 -14 -36 0 -23 16 6 7 6 17 1 26 -10
16 7 43 22 34 5 -3 4 -12 -3 -20z m86 -4 c3 -4 -7 -7 -20 -7 -14 0 -25 5 -25
12 0 14 36 9 45 -5z m75 -2 c0 -16 -3 -19 -11 -11 -6 6 -8 16 -5 22 11 17 16
13 16 -11z m-230 -32 c0 -8 -7 -16 -15 -20 -17 -6 -18 -4 -9 18 8 20 24 21 24
2z m148 -23 c-1 -10 1 -24 6 -31 4 -7 5 -20 2 -29 -10 -26 -30 1 -32 42 0 24
4 35 13 35 8 0 13 -8 11 -17z m287 -43 c3 -5 1 -10 -4 -10 -6 0 -11 5 -11 10
0 6 2 10 4 10 3 0 8 -4 11 -10z m-233 -15 c0 -5 -5 -11 -11 -13 -6 -2 -11 4
-11 13 0 9 5 15 11 13 6 -2 11 -8 11 -13z m-40 -77 c-16 -16 -15 -38 2 -38 8
0 16 -7 20 -15 4 -10 -1 -15 -14 -15 -11 0 -20 6 -20 14 0 8 -7 21 -15 30 -12
11 -13 21 -5 42 10 26 12 26 27 11 13 -13 15 -19 5 -29z m78 28 c0 -2 -7 -7
-16 -10 -8 -3 -12 -2 -9 4 6 10 25 14 25 6z m150 -126 c0 -5 -6 -10 -14 -10
-8 0 -18 5 -21 10 -3 6 3 10 14 10 12 0 21 -4 21 -10z m-10 -106 c0 -3 -6 -12
-14 -19 -17 -17 -30 -7 -15 12 12 13 29 18 29 7z m114 -43 c-9 -10 -26 18 -18
30 5 9 9 8 14 -7 4 -10 6 -21 4 -23z m-84 -27 c0 -18 -14 -18 -30 1 -16 19 -3
40 16 24 8 -6 14 -18 14 -25z m-80 5 c0 -5 -4 -9 -10 -9 -5 0 -10 7 -10 16 0
8 5 12 10 9 6 -3 10 -10 10 -16z m50 -59 c0 -5 -7 -10 -16 -10 -8 0 -12 5 -9
10 3 6 10 10 16 10 5 0 9 -4 9 -10z m133 -17 c12 -11 -13 -31 -33 -26 -33 9
-24 23 21 32 3 0 9 -2 12 -6z m-73 -37 c0 -11 -19 -15 -25 -6 -3 5 1 10 9 10
9 0 16 -2 16 -4z m97 -22 c-3 -3 -12 -4 -19 -1 -8 3 -5 6 6 6 11 1 17 -2 13
-5z m3 -44 c0 -5 -4 -10 -10 -10 -5 0 -10 5 -10 10 0 6 5 10 10 10 6 0 10 -4
10 -10z m0 -80 c0 -11 -4 -20 -9 -20 -5 0 -7 9 -4 20 3 11 7 20 9 20 2 0 4 -9
4 -20z m-90 -22 c5 -13 9 -17 9 -10 1 15 37 16 47 0 5 -7 2 -9 -8 -6 -32 13
-40 -7 -18 -47 11 -20 19 -40 16 -43 -8 -7 -37 19 -31 28 3 5 1 11 -5 15 -5 3
-10 14 -10 24 0 10 -7 24 -15 31 -17 14 -20 30 -5 30 6 0 15 -10 20 -22z m98
-72 c-7 -8 -15 -12 -17 -11 -5 6 10 25 20 25 5 0 4 -6 -3 -14z m-114 -27 c-3
-5 -10 -7 -15 -3 -5 3 -7 10 -3 15 3 5 10 7 15 3 5 -3 7 -10 3 -15z m201 -122
c17 -13 17 -14 -2 -19 -25 -7 -48 6 -39 21 9 14 18 14 41 -2z m64 -78 c-8 -5
-21 -9 -29 -9 -12 1 -11 4 4 15 10 8 23 12 29 8 5 -3 3 -9 -4 -14z m-139 -9
c0 -11 -4 -20 -10 -20 -5 0 -10 9 -10 20 0 11 5 20 10 20 6 0 10 -9 10 -20z
m-31 -46 c-6 -7 -17 -10 -25 -7 -7 3 -17 -2 -20 -11 -11 -28 -34 -18 -34 14 0
25 4 30 24 30 14 0 28 5 32 12 5 8 11 5 20 -7 10 -13 11 -22 3 -31z m83 -1
c22 -20 24 -43 3 -43 -8 0 -15 7 -15 15 0 8 -7 15 -15 15 -8 0 -15 7 -15 15 0
20 19 19 42 -2z m338 -57 c0 -3 -4 -8 -10 -11 -5 -3 -10 -1 -10 4 0 6 5 11 10
11 6 0 10 -2 10 -4z m-260 -20 c0 -15 -27 -29 -40 -21 -5 3 -7 12 -3 20 7 19
43 20 43 1z m90 -56 c0 -5 -7 -7 -15 -4 -8 4 -15 8 -15 10 0 2 7 4 15 4 8 0
15 -4 15 -10z m99 -67 c0 -5 -4 -17 -9 -28 -8 -18 -9 -17 -9 8 -1 15 4 27 9
27 6 0 10 -3 9 -7z m-93 -70 c-10 -10 -19 5 -10 18 6 11 8 11 12 0 2 -7 1 -15
-2 -18z m109 -33 c3 -5 -3 -10 -15 -10 -12 0 -18 5 -15 10 3 6 10 10 15 10 5
0 12 -4 15 -10z m-150 -66 c1 -40 -1 -43 -20 -38 -29 9 -42 23 -30 32 6 4 16
20 23 36 16 37 27 26 27 -30z m131 -26 c-3 -13 -6 -27 -6 -33 0 -5 -5 -3 -10
5 -15 23 -12 50 6 50 12 0 15 -6 10 -22z m52 -75 c17 -3 32 -10 32 -14 0 -10
-12 -12 -54 -9 -23 1 -28 -2 -23 -14 7 -17 -1 -20 -20 -8 -6 4 -9 19 -6 35 4
21 10 27 22 22 9 -4 31 -9 49 -12z m-148 -18 c0 -8 -9 -15 -20 -15 -20 0 -26
11 -13 23 12 13 33 7 33 -8z m237 -21 c-3 -3 -12 -4 -19 -1 -8 3 -5 6 6 6 11
1 17 -2 13 -5z m-247 -14 c0 -5 -4 -10 -10 -10 -5 0 -10 5 -10 10 0 6 5 10 10
10 6 0 10 -4 10 -10z m260 -74 c0 -11 -19 -15 -25 -6 -3 5 1 10 9 10 9 0 16
-2 16 -4z m0 -100 c0 -3 -4 -8 -10 -11 -5 -3 -10 -1 -10 4 0 6 5 11 10 11 6 0
10 -2 10 -4z m160 -46 c0 -5 -8 -10 -17 -10 -15 0 -16 2 -3 10 19 12 20 12 20
0z m-64 -33 c18 -10 18 -27 0 -27 -21 0 -37 25 -29 46 5 14 8 15 11 3 3 -7 11
-18 18 -22z m-69 -49 c-3 -8 -6 -5 -6 6 -1 11 2 17 5 13 3 -3 4 -12 1 -19z
m158 -8 c-3 -5 -13 -10 -21 -10 -8 0 -14 5 -14 10 0 6 9 10 21 10 11 0 17 -4
14 -10z m-85 -10 c0 -5 -7 -10 -16 -10 -8 0 -12 5 -9 10 3 6 10 10 16 10 5 0
9 -4 9 -10z m-15 -50 c3 -5 -3 -10 -14 -10 -12 0 -21 5 -21 10 0 6 6 10 14 10
8 0 18 -4 21 -10z m85 -46 c0 -2 -9 -4 -21 -4 -11 0 -18 4 -14 10 5 8 35 3 35
-6z m84 -93 c3 -5 -1 -14 -9 -21 -8 -7 -15 -9 -15 -5 0 4 -7 1 -17 -6 -9 -8
-25 -13 -36 -11 -12 2 -17 -1 -13 -7 4 -6 0 -11 -11 -11 -14 0 -9 9 19 35 36
34 71 45 82 26z m56 -57 c0 -8 -5 -12 -10 -9 -6 4 -8 11 -5 16 9 14 15 11 15
-7z m-122 -51 c6 -19 -25 -16 -32 3 -4 11 -1 14 11 12 9 -2 18 -9 21 -15z m56
-29 c20 -8 11 -24 -15 -24 -10 0 -19 -6 -19 -14 0 -8 -13 -16 -30 -18 -24 -4
-30 -1 -28 11 2 9 14 18 28 19 14 2 29 10 33 18 9 16 10 16 31 8z m76 -14 c0
-5 -7 -7 -15 -4 -8 4 -12 10 -9 15 6 11 24 2 24 -11z m128 -24 c3 -13 -1 -16
-21 -11 -18 5 -28 2 -35 -10 -6 -12 -11 -14 -16 -6 -12 18 33 53 59 47 6 -2
11 -10 13 -20z m-211 -41 c-15 -16 -28 -10 -21 10 3 7 12 11 19 8 11 -4 12 -8
2 -18z m167 -24 c8 -13 -3 -19 -24 -14 -11 3 -17 9 -14 14 7 11 31 12 38 0z
m72 -26 c-6 -17 -46 -21 -46 -5 0 6 9 10 20 10 12 0 20 7 21 18 0 10 2 12 6 4
3 -7 2 -19 -1 -27z m104 5 c0 -5 -9 -10 -20 -10 -11 0 -20 5 -20 10 0 6 9 10
20 10 11 0 20 -4 20 -10z m-60 -50 c0 -5 -7 -10 -15 -10 -8 0 -15 5 -15 10 0
6 7 10 15 10 8 0 15 -4 15 -10z m-25 -50 c-10 -4 -21 -15 -25 -25 -4 -12 -9
-15 -13 -7 -9 14 32 54 46 45 6 -4 3 -9 -8 -13z m95 11 c0 -9 -23 -21 -41 -21
-4 0 -6 7 -3 15 7 16 44 21 44 6z m-177 -17 c9 -10 -4 -34 -19 -34 -8 0 -14 2
-14 4 0 2 -3 11 -6 20 -4 11 0 16 13 16 11 0 22 -3 26 -6z m154 -80 c-3 -3
-12 -4 -19 -1 -8 3 -5 6 6 6 11 1 17 -2 13 -5z m-117 -14 c0 -5 -4 -10 -9 -10
-5 0 -8 -14 -7 -31 0 -18 -4 -34 -11 -36 -14 -5 -27 33 -16 49 4 7 8 16 9 21
1 4 2 9 3 12 2 10 31 5 31 -5z m25 -50 c-3 -5 0 -10 7 -10 10 0 9 -3 -2 -10
-9 -6 -17 -5 -22 3 -12 19 -9 27 8 27 8 0 12 -4 9 -10z m225 -81 c0 -5 -9 -9
-20 -9 -13 0 -18 5 -14 14 6 15 34 11 34 -5z m-130 -26 c19 -16 27 -43 14 -43
-12 0 -64 42 -64 51 0 15 28 10 50 -8z m-70 -38 c0 -18 -9 -22 -66 -28 -40 -5
-75 6 -62 18 3 3 27 8 53 10 26 2 50 6 53 9 10 11 22 6 22 -9z m-10 -71 c0
-16 -26 -19 -35 -4 -3 6 -18 7 -33 4 -19 -5 -24 -3 -17 4 10 11 64 21 78 14 4
-2 7 -10 7 -18z m40 10 c0 -8 -4 -12 -10 -9 -5 3 -10 10 -10 16 0 5 5 9 10 9
6 0 10 -7 10 -16z m90 -4 c11 -7 12 -12 3 -21 -8 -8 -14 -6 -22 10 -12 22 -5
27 19 11z m-170 -51 c0 -4 -7 -9 -15 -13 -15 -5 -39 26 -29 37 7 7 44 -14 44
-24z m300 27 c0 -11 -19 -15 -25 -6 -3 5 1 10 9 10 9 0 16 -2 16 -4z m-225
-64 c0 -18 -20 -15 -23 4 -3 10 1 15 10 12 7 -3 13 -10 13 -16z m-49 -19 c-3
-3 -13 -2 -23 2 -17 7 -17 8 2 15 19 7 34 -5 21 -17z m83 2 c2 16 21 -18 21
-37 0 -10 -5 -18 -11 -18 -6 0 -9 9 -6 19 3 12 -1 22 -9 25 -8 3 -14 13 -13
23 0 16 1 16 9 -2 5 -11 9 -15 9 -10z m131 -25 c0 -11 -7 -20 -15 -20 -15 0
-21 21 -8 33 12 13 23 7 23 -13z m-167 -33 c-8 -13 -23 3 -23 26 0 20 0 20 14
2 8 -11 12 -23 9 -28z m-80 -57 c-4 -16 0 -20 22 -20 30 0 30 -16 -1 -37 -18
-12 -24 -10 -47 11 -31 29 -32 32 -14 51 19 22 46 19 40 -5z m67 16 c0 -11
-19 -15 -25 -6 -3 5 1 10 9 10 9 0 16 -2 16 -4z m99 -3 c22 -6 22 -6 -9 -19
-41 -18 -40 -18 -40 6 0 21 10 24 49 13z m-59 -86 c0 -7 -4 -6 -10 3 -8 12
-10 12 -16 -4 -5 -14 -9 -15 -15 -4 -5 8 -2 15 9 19 20 8 32 2 32 -14z m-84
-68 c11 -1 7 -4 -11 -8 -37 -9 -45 -5 -45 21 0 20 1 20 18 5 10 -10 27 -18 38
-18z m-176 7 c0 -16 -18 -31 -27 -22 -8 8 5 36 17 36 5 0 10 -6 10 -14z m-53
-93 c-4 -3 0 -17 8 -30 18 -27 10 -30 -17 -6 -23 20 -23 43 -1 43 9 0 13 -3
10 -7z m93 3 c0 -3 -4 -8 -10 -11 -5 -3 -10 -1 -10 4 0 6 5 11 10 11 6 0 10
-2 10 -4z m-154 -73 c-10 -10 -19 5 -10 18 6 11 8 11 12 0 2 -7 1 -15 -2 -18z
m-36 7 c0 -5 -4 -10 -10 -10 -5 0 -10 5 -10 10 0 6 5 10 10 10 6 0 10 -4 10
-10z m-300 -190 c0 -5 -5 -10 -11 -10 -5 0 -7 5 -4 10 3 6 8 10 11 10 2 0 4
-4 4 -10z m-364 -127 c-11 -11 -19 6 -11 24 8 17 8 17 12 0 3 -10 2 -21 -1
-24z m-677 -261 c-5 -2 -17 -1 -27 3 -15 6 -15 8 3 15 12 4 23 3 27 -4 4 -6 3
-13 -3 -14z m-9269 -452 c0 -5 -4 -10 -10 -10 -5 0 -10 5 -10 10 0 6 5 10 10
10 6 0 10 -4 10 -10z m1487 -446 c-3 -3 -12 -4 -19 -1 -8 3 -5 6 6 6 11 1 17
-2 13 -5z m3253 -347 c37 -12 44 -14 60 -16 5 0 7 -7 4 -15 -10 -26 -195 -49
-209 -26 -3 6 -1 10 6 10 7 0 9 3 6 6 -10 11 13 44 31 45 14 0 14 2 -3 10 -27
12 58 1 105 -14z"/>
<path d="M2674 8264 c3 -9 6 -18 6 -20 0 -7 30 -4 48 5 9 5 26 13 37 17 19 7
19 7 2 11 -10 3 -26 -2 -36 -11 -22 -20 -41 -21 -41 -1 0 8 -5 15 -11 15 -6 0
-8 -7 -5 -16z"/>
<path d="M3200 8139 c0 -11 5 -17 10 -14 6 3 10 13 10 21 0 8 -4 14 -10 14 -5
0 -10 -9 -10 -21z"/>
<path d="M3405 8110 c3 -5 10 -10 16 -10 5 0 9 5 9 10 0 6 -7 10 -16 10 -8 0
-12 -4 -9 -10z"/>
<path d="M3482 8108 c3 -7 13 -15 24 -17 16 -3 17 -1 5 13 -16 19 -34 21 -29
4z"/>
<path d="M4025 8110 c3 -5 10 -10 16 -10 5 0 9 5 9 10 0 6 -7 10 -16 10 -8 0
-12 -4 -9 -10z"/>
<path d="M3931 8089 c-12 -20 -11 -21 11 -16 12 4 29 7 37 7 11 0 11 3 1 15
-17 21 -33 19 -49 -6z"/>
<path d="M4000 8079 c0 -17 29 -41 41 -34 7 5 4 13 -7 26 -19 21 -34 25 -34 8z"/>
<path d="M4090 8066 c0 -9 30 -14 35 -6 4 6 -3 10 -14 10 -12 0 -21 -2 -21 -4z"/>
<path d="M5040 8059 c0 -7 -3 -9 -6 -6 -10 10 -44 -12 -44 -28 0 -8 5 -15 10
-15 6 0 10 4 10 9 0 5 12 11 28 13 27 3 38 28 15 36 -7 2 -13 -2 -13 -9z"/>
<path d="M4750 8044 c0 -8 5 -12 10 -9 6 3 10 10 10 16 0 5 -4 9 -10 9 -5 0
-10 -7 -10 -16z"/>
<path d="M4270 8030 c0 -5 7 -10 15 -10 8 0 15 5 15 10 0 6 -7 10 -15 10 -8 0
-15 -4 -15 -10z"/>
<path d="M4310 8025 c0 -8 2 -15 4 -15 2 0 6 7 10 15 3 8 1 15 -4 15 -6 0 -10
-7 -10 -15z"/>
<path d="M4438 8018 c4 -16 7 -18 10 -8 3 8 10 18 16 22 6 5 2 8 -11 8 -17 0
-20 -4 -15 -22z"/>
<path d="M4510 8010 c0 -5 5 -10 11 -10 5 0 7 5 4 10 -3 6 -8 10 -11 10 -2 0
-4 -4 -4 -10z"/>
<path d="M5070 8000 c0 -5 7 -7 15 -4 8 4 15 8 15 10 0 2 -7 4 -15 4 -8 0 -15
-4 -15 -10z"/>
<path d="M4930 7989 c0 -5 5 -7 10 -4 6 3 10 8 10 11 0 2 -4 4 -10 4 -5 0 -10
-5 -10 -11z"/>
<path d="M5582 7987 c-9 -11 -10 -17 -2 -22 15 -9 23 -1 18 21 -3 15 -4 16
-16 1z"/>
<path d="M5497 7971 c-5 -20 9 -31 31 -24 17 6 15 30 -4 37 -21 8 -21 8 -27
-13z"/>
<path d="M4866 7966 c3 -9 11 -16 16 -16 13 0 5 23 -10 28 -7 2 -10 -2 -6 -12z"/>
<path d="M5255 7962 c-11 -8 -16 -42 -6 -42 3 0 11 11 18 25 11 25 7 31 -12
17z"/>
<path d="M5320 7960 c0 -6 11 -8 28 -4 39 10 40 14 4 14 -18 0 -32 -5 -32 -10z"/>
<path d="M5853 7941 c-10 -16 -9 -20 8 -24 12 -3 23 1 29 13 17 32 -17 43 -37
11z"/>
<path d="M5770 7943 c1 -18 19 -35 29 -28 9 5 9 10 0 21 -12 15 -29 19 -29 7z"/>
<path d="M5581 7921 c-10 -6 -10 -10 -1 -16 13 -8 24 -1 19 14 -3 6 -10 7 -18
2z"/>
<path d="M5620 7896 c0 -9 5 -16 10 -16 6 0 10 4 10 9 0 6 -4 13 -10 16 -5 3
-10 -1 -10 -9z"/>
<path d="M6016 7891 c-3 -5 -14 -8 -24 -6 -9 1 -11 0 -4 -2 15 -6 16 -30 0
-35 -7 -3 -8 -10 -3 -17 5 -9 22 -12 51 -8 34 3 44 1 44 -10 0 -8 5 -11 10 -8
16 10 -10 37 -30 32 -21 -5 -54 18 -45 32 3 6 15 11 26 11 11 0 17 5 14 10 -8
12 -32 13 -39 1z"/>
<path d="M5830 7880 c0 -15 21 -23 32 -12 6 6 2 11 -11 15 -12 3 -21 1 -21 -3z"/>
<path d="M6380 7830 c0 -5 5 -10 10 -10 6 0 10 -8 10 -17 0 -13 3 -14 11 -6 9
9 8 16 -4 27 -18 18 -27 20 -27 6z"/>
<path d="M6248 7823 c6 -2 18 -2 25 0 6 3 1 5 -13 5 -14 0 -19 -2 -12 -5z"/>
<path d="M6235 7780 c-3 -5 1 -10 9 -10 8 0 18 5 21 10 3 6 -1 10 -9 10 -8 0
-18 -4 -21 -10z"/>
<path d="M6360 7765 c0 -14 5 -25 10 -25 6 0 10 11 10 25 0 14 -4 25 -10 25
-5 0 -10 -11 -10 -25z"/>
<path d="M6590 7775 c-10 -13 -9 -15 9 -15 12 0 21 6 21 15 0 8 -4 15 -9 15
-5 0 -14 -7 -21 -15z"/>
<path d="M6640 7745 c0 -15 28 -28 41 -19 16 10 9 22 -16 26 -16 3 -25 1 -25
-7z"/>
<path d="M6900 7726 c0 -21 4 -24 35 -23 40 1 43 6 15 30 -29 24 -50 22 -50
-7z"/>
<path d="M6960 7741 c0 -12 29 -23 41 -15 18 10 9 24 -16 24 -14 0 -25 -4 -25
-9z"/>
<path d="M7072 7731 c-7 -4 -10 -15 -6 -24 5 -13 0 -17 -20 -17 -23 0 -39 -18
-18 -21 58 -8 66 -4 68 29 2 35 -5 45 -24 33z"/>
<path d="M6398 7723 c7 -3 16 -2 19 1 4 3 -2 6 -13 5 -11 0 -14 -3 -6 -6z"/>
<path d="M6535 7712 c-7 -20 -7 -22 9 -22 7 0 19 7 26 15 8 9 21 13 36 9 14
-4 24 -2 24 5 0 16 -88 10 -95 -7z"/>
<path d="M7253 7713 c-24 -3 -33 -9 -33 -23 0 -10 -6 -21 -12 -23 -7 -3 2 -11
20 -18 33 -14 39 -30 34 -101 -2 -33 10 -36 37 -9 20 20 20 20 0 26 -15 5 -19
16 -19 49 0 23 3 46 8 50 8 9 11 57 2 54 -3 0 -20 -3 -37 -5z"/>
<path d="M6670 7697 c0 -17 34 -49 43 -40 12 11 8 20 -18 37 -20 13 -25 14
-25 3z"/>
<path d="M6791 7687 c-6 -8 -8 -17 -4 -20 7 -8 33 11 33 24 0 13 -16 11 -29
-4z"/>
<path d="M6618 7673 c7 -3 16 -2 19 1 4 3 -2 6 -13 5 -11 0 -14 -3 -6 -6z"/>
<path d="M6847 7673 c-14 -13 -7 -73 7 -73 11 0 13 9 9 38 -7 43 -7 44 -16 35z"/>
<path d="M6913 7665 c-3 -9 -2 -19 1 -23 8 -8 38 10 44 26 6 18 -38 14 -45 -3z"/>
<path d="M6982 7629 c-15 -24 -15 -29 2 -29 15 0 29 37 17 44 -4 3 -12 -4 -19
-15z"/>
<path d="M7020 7641 c0 -16 28 -20 34 -5 4 9 -1 14 -14 14 -11 0 -20 -4 -20
-9z"/>
<path d="M6787 7626 c-6 -16 2 -28 14 -20 12 7 11 34 0 34 -5 0 -11 -6 -14
-14z"/>
<path d="M7075 7595 c7 -51 19 -74 32 -62 4 4 1 13 -5 19 -7 7 -12 23 -12 38
0 14 -5 32 -11 40 -8 11 -9 1 -4 -35z"/>
<path d="M6677 7623 c-12 -11 -8 -23 8 -23 8 0 15 7 15 15 0 16 -12 20 -23 8z"/>
<path d="M7302 7604 c1 -9 9 -19 16 -22 9 -3 13 2 10 14 -1 9 -9 19 -16 22 -9
3 -13 -2 -10 -14z"/>
<path d="M7218 7604 c-5 -4 -8 -15 -8 -25 0 -10 -8 -20 -17 -22 -13 -4 -12 -5
5 -6 12 0 25 5 28 13 8 20 1 50 -8 40z"/>
<path d="M6880 7586 c0 -9 5 -16 10 -16 6 0 10 4 10 9 0 6 -4 13 -10 16 -5 3
-10 -1 -10 -9z"/>
<path d="M6885 7520 c4 -6 11 -8 16 -5 14 9 11 15 -7 15 -8 0 -12 -5 -9 -10z"/>
<path d="M7191 7520 c-9 -5 -11 -15 -7 -26 5 -12 10 -15 14 -7 4 6 16 13 27
15 20 4 20 4 -1 15 -11 7 -26 8 -33 3z"/>
<path d="M7025 7510 c3 -5 8 -10 11 -10 2 0 4 5 4 10 0 6 -5 10 -11 10 -5 0
-7 -4 -4 -10z"/>
<path d="M6935 7479 c-4 -6 -5 -13 -2 -16 7 -7 27 6 27 18 0 12 -17 12 -25 -2z"/>
<path d="M7248 7456 c-10 -7 -18 -18 -18 -24 0 -12 58 -27 67 -18 4 3 -1 6 -9
6 -9 0 -21 6 -27 14 -10 11 -8 17 6 25 10 6 14 10 8 10 -5 0 -18 -6 -27 -13z"/>
<path d="M7440 7442 c0 -6 -9 -12 -20 -14 -24 -4 -28 -22 -6 -26 15 -3 42 35
32 46 -3 3 -6 0 -6 -6z"/>
<path d="M7560 7440 c0 -5 7 -10 16 -10 8 0 12 5 9 10 -3 6 -10 10 -16 10 -5
0 -9 -4 -9 -10z"/>
<path d="M7434 7395 c-7 -17 31 -70 40 -57 6 9 -21 72 -30 72 -3 0 -7 -7 -10
-15z"/>
<path d="M7310 7366 c0 -2 11 -6 25 -8 13 -3 22 -1 19 3 -5 9 -44 13 -44 5z"/>
<path d="M7680 7343 c0 -6 6 -13 12 -15 21 -7 -17 -38 -46 -38 -14 0 -26 -4
-26 -10 0 -15 42 -12 84 5 37 16 49 45 18 45 -10 0 -23 5 -30 12 -8 8 -12 9
-12 1z"/>
<path d="M7410 7330 c0 -5 5 -10 10 -10 6 0 10 5 10 10 0 6 -4 10 -10 10 -5 0
-10 -4 -10 -10z"/>
<path d="M7320 7320 c0 -5 5 -10 11 -10 5 0 7 5 4 10 -3 6 -8 10 -11 10 -2 0
-4 -4 -4 -10z"/>
<path d="M7421 7306 c-15 -17 -2 -27 27 -20 12 4 19 11 15 20 -7 18 -27 18
-42 0z"/>
<path d="M7872 7299 c-15 -24 -14 -26 12 -31 24 -4 30 12 14 35 -12 16 -14 16
-26 -4z"/>
<path d="M7091 7294 c0 -11 3 -14 6 -6 3 7 2 16 -1 19 -3 4 -6 -2 -5 -13z"/>
<path d="M7527 7303 c-14 -13 -6 -18 23 -17 49 2 56 5 35 14 -25 11 -50 12
-58 3z"/>
<path d="M8067 7294 c-3 -5 1 -15 9 -22 16 -14 18 -5 5 17 -5 7 -11 9 -14 5z"/>
<path d="M8018 7283 c-6 -33 -3 -63 7 -63 14 0 29 46 20 60 -7 12 -24 13 -27
3z"/>
<path d="M7826 7273 c-4 -4 -23 -8 -43 -10 -44 -3 -63 -9 -63 -22 0 -6 22 -8
50 -6 33 2 55 -1 63 -10 12 -11 14 -8 15 21 1 33 -6 42 -22 27z"/>
<path d="M7540 7255 c0 -19 9 -19 34 0 19 14 19 15 -7 15 -17 0 -27 -5 -27
-15z"/>
<path d="M7415 7247 c-13 -10 -15 -16 -6 -21 12 -8 41 10 41 25 0 13 -13 11
-35 -4z"/>
<path d="M8155 7250 c-7 -12 -8 -11 33 -15 27 -2 30 0 21 11 -13 16 -45 19
-54 4z"/>
<path d="M7970 7225 c0 -8 7 -15 15 -15 8 0 15 4 15 9 0 5 -7 11 -15 15 -9 3
-15 0 -15 -9z"/>
<path d="M8077 7223 c-12 -12 -7 -22 8 -17 8 4 15 10 15 15 0 11 -14 12 -23 2z"/>
<path d="M8130 7205 c0 -14 -5 -25 -11 -25 -5 0 -7 -4 -4 -10 9 -15 25 -12 25
5 0 8 5 15 10 15 16 0 12 27 -5 34 -11 4 -15 -1 -15 -19z"/>
<path d="M7902 7207 c-9 -11 -10 -17 -2 -22 6 -3 8 -11 5 -16 -4 -5 -2 -9 3
-9 14 0 20 22 13 43 -6 17 -8 17 -19 4z"/>
<path d="M8187 7209 c-10 -6 -15 -14 -12 -19 6 -10 45 -1 45 11 0 14 -15 18
-33 8z"/>
<path d="M7420 7190 c0 -5 5 -10 10 -10 6 0 10 5 10 10 0 6 -4 10 -10 10 -5 0
-10 -4 -10 -10z"/>
<path d="M7605 7190 c3 -5 13 -10 21 -10 8 0 14 5 14 10 0 6 -9 10 -21 10 -11
0 -17 -4 -14 -10z"/>
<path d="M7954 7179 c-3 -6 0 -15 7 -20 13 -7 28 5 29 24 0 11 -28 8 -36 -4z"/>
<path d="M7208 7173 c7 -3 16 -2 19 1 4 3 -2 6 -13 5 -11 0 -14 -3 -6 -6z"/>
<path d="M7597 7165 c3 -8 9 -12 14 -9 12 7 11 11 -5 17 -10 4 -13 1 -9 -8z"/>
<path d="M7824 7145 c-10 -25 4 -47 28 -43 32 4 34 32 3 46 -21 10 -27 9 -31
-3z"/>
<path d="M8000 7129 c0 -29 1 -30 33 -24 50 11 52 17 16 36 -46 24 -49 24 -49
-12z"/>
<path d="M8149 7143 c-12 -15 -12 -16 3 -10 12 4 22 -2 35 -23 20 -35 29 -37
43 -10 9 17 8 20 -9 20 -11 0 -25 9 -31 20 -13 24 -23 25 -41 3z"/>
<path d="M7705 7127 c-4 -10 -5 -21 -1 -24 10 -10 18 4 13 24 -4 17 -4 17 -12
0z"/>
<path d="M7760 7125 c0 -9 9 -25 20 -37 19 -21 20 -21 20 -2 -1 19 -22 54 -34
54 -3 0 -6 -7 -6 -15z"/>
<path d="M7920 7115 c-16 -19 -3 -40 16 -24 15 13 19 39 5 39 -5 0 -14 -7 -21
-15z"/>
<path d="M8100 7110 c0 -5 7 -10 15 -10 8 0 15 5 15 10 0 6 -7 10 -15 10 -8 0
-15 -4 -15 -10z"/>
<path d="M8252 7064 c8 -17 19 -24 39 -24 55 0 45 34 -13 43 -36 5 -37 5 -26
-19z"/>
<path d="M8095 7040 c-3 -5 -4 -14 0 -20 8 -13 35 -1 35 16 0 16 -26 19 -35 4z"/>
<path d="M7745 7030 c-3 -5 -1 -10 4 -10 6 0 11 5 11 10 0 6 -2 10 -4 10 -3 0
-8 -4 -11 -10z"/>
<path d="M7930 7031 c0 -13 26 -32 33 -24 14 13 6 33 -13 33 -11 0 -20 -4 -20
-9z"/>
<path d="M8040 7020 c0 -5 5 -10 10 -10 6 0 10 5 10 10 0 6 -4 10 -10 10 -5 0
-10 -4 -10 -10z"/>
<path d="M8257 7017 c-3 -7 -24 -12 -56 -12 -52 0 -55 -2 -45 -29 5 -13 10
-12 36 7 19 14 32 18 35 11 2 -6 15 -9 28 -6 28 5 32 -5 10 -34 -19 -25 -19
-54 0 -54 9 0 15 9 15 25 0 14 5 25 10 25 6 0 10 6 10 14 0 8 9 18 20 21 11 3
20 11 20 16 0 9 -2 10 -36 14 -12 1 -26 5 -32 9 -5 3 -12 0 -15 -7z"/>
<path d="M7830 7001 c0 -14 5 -19 15 -14 17 6 15 25 -3 31 -7 2 -12 -5 -12
-17z"/>
<path d="M7988 7003 c7 -3 16 -2 19 1 4 3 -2 6 -13 5 -11 0 -14 -3 -6 -6z"/>
<path d="M7911 6981 c-7 -5 -10 -14 -7 -20 11 -18 33 -13 39 9 5 21 -8 26 -32
11z"/>
<path d="M7997 6971 c-4 -17 -3 -21 5 -13 5 5 8 16 6 23 -3 8 -7 3 -11 -10z"/>
<path d="M8046 6968 c6 -22 25 -41 31 -34 2 2 -1 15 -6 30 -13 32 -35 36 -25
4z"/>
<path d="M8231 6954 c0 -11 3 -14 6 -6 3 7 2 16 -1 19 -3 4 -6 -2 -5 -13z"/>
<path d="M7860 6950 c0 -5 5 -10 10 -10 6 0 10 5 10 10 0 6 -4 10 -10 10 -5 0
-10 -4 -10 -10z"/>
<path d="M8185 6930 c3 -5 8 -10 11 -10 2 0 4 5 4 10 0 6 -5 10 -11 10 -5 0
-7 -4 -4 -10z"/>
<path d="M8320 6921 c0 -12 5 -21 10 -21 6 0 10 6 10 14 0 8 -4 18 -10 21 -5
3 -10 -3 -10 -14z"/>
<path d="M7800 6920 c0 -5 4 -10 9 -10 6 0 13 5 16 10 3 6 -1 10 -9 10 -9 0
-16 -4 -16 -10z"/>
<path d="M8170 6900 c-12 -8 -9 -10 13 -10 15 0 27 5 27 10 0 13 -20 13 -40 0z"/>
<path d="M8107 6889 c8 -8 16 -8 30 0 16 9 14 10 -11 11 -22 0 -27 -3 -19 -11z"/>
<path d="M7994 6866 c-11 -8 -15 -18 -10 -23 5 -4 11 -2 13 5 3 6 16 12 29 12
13 0 24 5 24 10 0 15 -33 12 -56 -4z"/>
<path d="M8210 6850 c-11 -7 -6 -10 23 -12 20 -1 45 -2 54 -2 9 -1 18 5 21 12
5 15 -75 17 -98 2z"/>
<path d="M8045 6829 c-11 -17 1 -21 15 -4 8 9 8 15 2 15 -6 0 -14 -5 -17 -11z"/>
<path d="M8120 6825 c-16 -19 0 -19 26 0 16 12 16 14 3 15 -9 0 -22 -7 -29
-15z"/>
<path d="M8215 6815 c-19 -15 -19 -15 10 -13 17 2 29 7 28 13 -3 16 -18 16
-38 0z"/>
<path d="M8291 6801 c-12 -8 -12 -12 -2 -25 8 -9 20 -16 28 -16 19 0 29 30 12
41 -17 11 -21 11 -38 0z"/>
<path d="M8400 6784 c0 -15 6 -24 15 -24 8 0 15 2 15 4 0 2 3 11 6 19 3 9 -3
16 -15 20 -17 4 -21 0 -21 -19z"/>
<path d="M8150 6789 c0 -5 5 -7 10 -4 6 3 10 8 10 11 0 2 -4 4 -10 4 -5 0 -10
-5 -10 -11z"/>
<path d="M8377 6793 c-4 -3 -7 -11 -7 -17 0 -6 5 -5 12 2 6 6 9 14 7 17 -3 3
-9 2 -12 -2z"/>
<path d="M8365 6750 c-7 -12 2 -30 16 -30 5 0 9 9 9 20 0 21 -15 27 -25 10z"/>
<path d="M7920 6724 c0 -9 5 -14 12 -12 18 6 21 28 4 28 -9 0 -16 -7 -16 -16z"/>
<path d="M8440 6715 c0 -8 5 -15 10 -15 6 0 10 7 10 15 0 8 -4 15 -10 15 -5 0
-10 -7 -10 -15z"/>
<path d="M8560 6713 c0 -9 34 -32 48 -33 24 0 7 24 -21 31 -15 4 -27 5 -27 2z"/>
<path d="M8537 6703 c-5 -7 -18 -13 -30 -13 -21 0 -21 0 2 -16 26 -19 45 -8
39 22 -2 14 -6 16 -11 7z"/>
<path d="M8310 6690 c0 -5 5 -10 10 -10 6 0 10 5 10 10 0 6 -4 10 -10 10 -5 0
-10 -4 -10 -10z"/>
<path d="M8393 6661 c-6 -10 -8 -23 -4 -29 4 -7 10 -5 18 7 6 10 8 23 4 29 -4
7 -10 5 -18 -7z"/>
<path d="M8590 6654 c-7 -8 -21 -14 -31 -14 -25 0 -33 -16 -12 -24 10 -4 22
-1 28 7 7 9 21 13 37 10 34 -6 44 11 13 25 -18 8 -26 8 -35 -4z"/>
<path d="M8454 6605 c-9 -22 15 -45 45 -44 l26 1 -28 11 c-20 8 -26 16 -21 29
7 22 -14 24 -22 3z"/>
<path d="M8644 6585 c11 -8 16 -18 13 -22 -4 -4 -13 -1 -19 5 -16 16 -51 15
-46 0 6 -17 71 -33 94 -24 11 4 14 10 8 14 -6 4 -13 15 -17 25 -4 9 -16 17
-29 17 -22 -1 -22 -1 -4 -15z"/>
<path d="M8140 6570 c0 -5 5 -10 10 -10 6 0 10 5 10 10 0 6 -4 10 -10 10 -5 0
-10 -4 -10 -10z"/>
<path d="M8741 6526 c-13 -15 -7 -36 9 -36 12 0 22 32 12 42 -5 5 -14 2 -21
-6z"/>
<path d="M8800 6527 c-8 -7 -16 -29 -18 -49 -3 -34 -1 -38 21 -38 17 0 24 5
23 18 0 9 6 17 14 17 9 0 14 -7 12 -17 -4 -22 11 -23 29 -2 8 10 9 18 3 22 -6
4 -13 15 -17 24 -4 11 -12 15 -22 12 -10 -4 -15 0 -15 10 0 19 -9 20 -30 3z"/>
<path d="M8632 6500 c0 -14 2 -19 5 -12 2 6 2 18 0 25 -3 6 -5 1 -5 -13z"/>
<path d="M8892 6508 c2 -6 10 -14 16 -16 7 -2 10 2 6 12 -7 18 -28 22 -22 4z"/>
<path d="M8527 6503 c-4 -3 -7 -11 -7 -17 0 -6 5 -5 12 2 6 6 9 14 7 17 -3 3
-9 2 -12 -2z"/>
<path d="M8436 6455 c4 -8 15 -15 27 -15 23 0 22 2 -10 19 -19 10 -22 9 -17
-4z"/>
<path d="M8810 6393 c0 -5 5 -15 10 -23 8 -12 10 -11 10 8 0 12 -4 22 -10 22
-5 0 -10 -3 -10 -7z"/>
<path d="M8878 6368 c-4 -10 2 -26 17 -42 28 -31 31 -31 39 -10 8 20 -11 45
-29 38 -7 -3 -15 2 -17 13 -3 16 -4 16 -10 1z"/>
<path d="M8959 6355 c-5 -9 -5 -72 0 -120 2 -18 3 -17 14 5 l11 25 4 -32 c2
-18 7 -33 11 -33 13 0 -1 104 -15 115 -7 6 -14 19 -16 30 -2 11 -6 16 -9 10z"/>
<path d="M8695 6340 c3 -5 10 -10 16 -10 5 0 9 5 9 10 0 6 -7 10 -16 10 -8 0
-12 -4 -9 -10z"/>
<path d="M8815 6320 c-3 -5 -1 -10 4 -10 6 0 11 5 11 10 0 6 -2 10 -4 10 -3 0
-8 -4 -11 -10z"/>
<path d="M8757 6293 c-3 -15 0 -35 6 -45 14 -22 55 -24 64 -3 8 21 -3 30 -20
17 -18 -15 -27 -5 -27 30 0 36 -16 37 -23 1z"/>
<path d="M8856 6283 c-6 -14 -5 -15 5 -6 7 7 10 15 7 18 -3 3 -9 -2 -12 -12z"/>
<path d="M8646 6281 c-4 -5 3 -7 14 -4 23 6 26 13 6 13 -8 0 -17 -4 -20 -9z"/>
<path d="M8910 6260 c0 -5 5 -10 10 -10 6 0 10 5 10 10 0 6 -4 10 -10 10 -5 0
-10 -4 -10 -10z"/>
<path d="M8857 6234 c-8 -8 1 -24 14 -24 5 0 9 7 9 15 0 15 -12 20 -23 9z"/>
<path d="M9060 6210 c0 -5 7 -10 16 -10 8 0 12 5 9 10 -3 6 -10 10 -16 10 -5
0 -9 -4 -9 -10z"/>
<path d="M8965 6186 c-5 -11 -4 -21 4 -25 7 -4 13 -17 13 -27 2 -27 34 -26 34
1 -1 13 5 20 18 20 25 0 32 21 9 29 -11 4 -22 1 -29 -8 -16 -23 -32 -20 -37 7
-3 20 -4 20 -12 3z"/>
<path d="M9150 6156 c0 -9 5 -16 10 -16 6 0 10 4 10 9 0 6 -4 13 -10 16 -5 3
-10 -1 -10 -9z"/>
<path d="M8852 6127 c-10 -12 -5 -14 33 -14 29 0 44 4 42 11 -5 17 -62 19 -75
3z"/>
<path d="M9072 6129 c2 -7 10 -15 17 -17 8 -3 12 1 9 9 -2 7 -10 15 -17 17 -8
3 -12 -1 -9 -9z"/>
<path d="M9025 6090 c-3 -5 1 -10 10 -10 9 0 13 5 10 10 -3 6 -8 10 -10 10 -2
0 -7 -4 -10 -10z"/>
<path d="M9125 6074 c-9 -14 -14 -32 -11 -39 6 -16 42 -9 44 8 0 7 4 22 7 35
10 32 -18 29 -40 -4z"/>
<path d="M8990 6065 c0 -8 5 -15 10 -15 6 0 10 7 10 15 0 8 -4 15 -10 15 -5 0
-10 -7 -10 -15z"/>
<path d="M8880 6045 c0 -9 6 -12 15 -9 8 4 15 10 15 15 0 5 -7 9 -15 9 -8 0
-15 -7 -15 -15z"/>
<path d="M9046 6024 c-9 -24 -7 -34 8 -34 13 0 26 20 26 41 0 15 -27 10 -34
-7z"/>
<path d="M7767 6003 c-5 -7 -19 -13 -33 -13 -32 0 -80 -75 -90 -139 -8 -51 10
-154 32 -188 20 -31 42 -29 87 10 33 28 40 41 51 99 7 37 9 73 5 80 -5 7 -9
34 -9 61 0 26 -4 47 -8 47 -5 0 -13 12 -18 28 -7 18 -12 23 -17 15z"/>
<path d="M8880 5999 c0 -5 5 -7 10 -4 6 3 10 8 10 11 0 2 -4 4 -10 4 -5 0 -10
-5 -10 -11z"/>
<path d="M8780 5990 c0 -5 4 -10 9 -10 6 0 13 5 16 10 3 6 -1 10 -9 10 -9 0
-16 -4 -16 -10z"/>
<path d="M9100 5980 c-7 -4 -19 -6 -27 -3 -17 7 -17 -26 1 -49 16 -22 26 -23
26 -3 0 8 9 15 20 15 23 0 25 8 7 32 -9 11 -18 14 -27 8z"/>
<path d="M9186 5982 c-7 -12 3 -42 14 -42 16 0 19 17 6 35 -8 11 -15 14 -20 7z"/>
<path d="M8776 5945 c4 -8 10 -15 15 -15 4 0 6 7 3 15 -4 8 -10 15 -15 15 -4
0 -6 -7 -3 -15z"/>
<path d="M8845 5920 c-3 -5 -2 -10 4 -10 5 0 13 5 16 10 3 6 2 10 -4 10 -5 0
-13 -4 -16 -10z"/>
<path d="M9194 5897 c-6 -7 -14 -27 -17 -45 -6 -28 -3 -34 16 -41 12 -5 29 -5
37 -1 9 6 21 3 32 -7 19 -17 40 -10 32 11 -3 8 -14 12 -25 9 -13 -4 -19 0 -19
11 0 9 6 16 14 16 8 0 17 7 20 16 5 13 4 14 -7 6 -10 -9 -17 -8 -25 0 -9 9
-12 6 -12 -15 0 -21 -5 -27 -21 -27 -19 0 -20 4 -14 40 7 43 6 46 -11 27z"/>
<path d="M9128 5883 c-24 -6 -26 -98 -3 -107 8 -3 15 -13 15 -22 0 -28 14 -6
16 26 1 21 -3 31 -17 35 -20 7 -27 35 -9 35 6 0 10 6 10 14 0 8 6 17 13 19 15
7 -2 6 -25 0z"/>
<path d="M8967 5854 c-8 -8 1 -24 14 -24 5 0 9 7 9 15 0 15 -12 20 -23 9z"/>
<path d="M9223 5759 c3 -9 0 -22 -6 -28 -8 -8 -7 -11 5 -11 9 0 18 4 20 10 7
20 47 -2 50 -28 4 -35 28 -41 28 -7 0 34 -27 61 -58 56 -14 -1 -29 3 -34 11
-8 10 -9 9 -5 -3z"/>
<path d="M9060 5745 c0 -16 16 -20 24 -6 3 5 -1 11 -9 15 -9 3 -15 0 -15 -9z"/>
<path d="M9000 5720 c0 -5 5 -10 10 -10 6 0 10 5 10 10 0 6 -4 10 -10 10 -5 0
-10 -4 -10 -10z"/>
<path d="M9178 5723 c7 -3 16 -2 19 1 4 3 -2 6 -13 5 -11 0 -14 -3 -6 -6z"/>
<path d="M9120 5690 c0 -16 5 -30 10 -30 6 0 10 14 10 30 0 17 -4 30 -10 30
-5 0 -10 -13 -10 -30z"/>
<path d="M9342 5678 c-7 -7 -11 -26 -11 -42 1 -17 3 -24 6 -14 6 22 34 32 45
16 4 -7 8 -23 8 -35 0 -13 5 -23 10 -23 6 0 10 5 10 10 0 14 27 12 33 -2 3 -7
6 -3 6 9 1 12 9 27 19 32 16 10 16 10 -1 11 -10 0 -20 -7 -23 -15 -9 -23 -24
-18 -24 9 0 14 -10 32 -22 40 -27 19 -40 20 -56 4z"/>
<path d="M7843 5650 c-18 -9 -48 -29 -67 -44 -34 -25 -89 -35 -100 -17 -9 14
-133 34 -169 27 -45 -8 -92 -49 -118 -103 -19 -40 -21 -56 -17 -147 3 -57 10
-111 15 -122 6 -10 17 -42 26 -70 16 -50 49 -125 67 -154 5 -8 31 -51 57 -95
26 -44 49 -82 52 -85 4 -3 20 -23 36 -45 92 -123 247 -264 308 -279 29 -7 117
24 117 42 0 14 64 42 97 42 15 0 46 -7 68 -15 22 -8 61 -14 88 -15 79 0 99 35
116 210 9 90 0 182 -20 207 -7 8 -29 23 -49 33 -72 37 -151 138 -205 264 -21
46 -17 198 5 232 11 19 11 24 -6 41 -22 23 -97 73 -134 90 -46 21 -132 23
-167 3z"/>
<path d="M9177 5653 c-4 -3 -7 -17 -7 -29 0 -13 -7 -24 -17 -27 -15 -4 -14 -5
3 -6 13 -1 25 8 33 26 11 25 3 51 -12 36z"/>
<path d="M9272 5602 c1 -34 13 -51 20 -29 3 6 -1 23 -8 36 -13 25 -13 25 -12
-7z"/>
<path d="M9491 5604 c0 -11 3 -14 6 -6 3 7 2 16 -1 19 -3 4 -6 -2 -5 -13z"/>
<path d="M9310 5580 c0 -5 5 -10 10 -10 6 0 10 5 10 10 0 6 -4 10 -10 10 -5 0
-10 -4 -10 -10z"/>
<path d="M9346 5575 c4 -8 10 -15 15 -15 5 0 9 7 9 15 0 8 -7 15 -15 15 -9 0
-12 -6 -9 -15z"/>
<path d="M9555 5570 c-3 -5 -1 -10 4 -10 6 0 11 5 11 10 0 6 -2 10 -4 10 -3 0
-8 -4 -11 -10z"/>
<path d="M9494 5545 c-16 -13 -17 -16 -4 -25 23 -15 30 -12 30 15 0 29 0 29
-26 10z"/>
<path d="M9535 5540 c-3 -5 3 -10 14 -10 12 0 21 5 21 10 0 6 -6 10 -14 10 -8
0 -18 -4 -21 -10z"/>
<path d="M9205 5530 c3 -5 10 -10 16 -10 5 0 9 5 9 10 0 6 -7 10 -16 10 -8 0
-12 -4 -9 -10z"/>
<path d="M9148 5483 c6 -2 18 -2 25 0 6 3 1 5 -13 5 -14 0 -19 -2 -12 -5z"/>
<path d="M9475 5480 c3 -5 10 -10 16 -10 5 0 9 5 9 10 0 6 -7 10 -16 10 -8 0
-12 -4 -9 -10z"/>
<path d="M9556 5463 c-3 -3 2 -12 12 -19 20 -16 32 -17 32 -4 0 12 -35 31 -44
23z"/>
<path d="M9450 5445 c0 -8 4 -15 9 -15 5 0 11 7 15 15 3 9 0 15 -9 15 -8 0
-15 -7 -15 -15z"/>
<path d="M9515 5449 c-4 -6 -5 -13 -2 -16 7 -7 27 6 27 18 0 12 -17 12 -25 -2z"/>
<path d="M9387 5433 c-4 -3 -7 -11 -7 -17 0 -6 5 -5 12 2 6 6 9 14 7 17 -3 3
-9 2 -12 -2z"/>
<path d="M9351 5386 c-7 -8 -8 -17 -3 -20 6 -3 12 3 15 14 6 24 4 25 -12 6z"/>
<path d="M9477 5383 c-4 -3 -7 -12 -7 -20 0 -15 26 -18 34 -4 7 11 -18 33 -27
24z"/>
<path d="M9418 5373 c7 -3 16 -2 19 1 4 3 -2 6 -13 5 -11 0 -14 -3 -6 -6z"/>
<path d="M9410 5320 c0 -5 5 -10 11 -10 5 0 7 5 4 10 -3 6 -8 10 -11 10 -2 0
-4 -4 -4 -10z"/>
<path d="M9737 5273 c-12 -11 -8 -23 8 -23 8 0 15 7 15 15 0 16 -12 20 -23 8z"/>
<path d="M9652 5220 c0 -14 2 -19 5 -12 2 6 2 18 0 25 -3 6 -5 1 -5 -13z"/>
<path d="M9740 5230 c-12 -7 -12 -12 -3 -21 15 -15 26 -7 21 15 -2 11 -7 13
-18 6z"/>
<path d="M9470 5210 c0 -5 5 -10 10 -10 6 0 10 5 10 10 0 6 -4 10 -10 10 -5 0
-10 -4 -10 -10z"/>
<path d="M9502 5169 c2 -6 8 -10 13 -10 5 0 11 4 13 10 2 6 -4 11 -13 11 -9 0
-15 -5 -13 -11z"/>
<path d="M9713 5115 c-6 -25 -6 -45 -2 -45 5 0 11 12 15 28 3 15 8 35 11 45 2
9 0 17 -5 17 -5 0 -13 -20 -19 -45z"/>
<path d="M9612 5129 c2 -7 10 -15 17 -17 8 -3 12 1 9 9 -2 7 -10 15 -17 17 -8
3 -12 -1 -9 -9z"/>
<path d="M9820 5114 c-11 -12 -10 -18 3 -32 16 -15 17 -14 17 16 0 36 -2 38
-20 16z"/>
<path d="M9644 5086 c-8 -22 3 -33 18 -18 9 9 9 15 0 24 -9 9 -13 7 -18 -6z"/>
<path d="M9870 5091 c0 -5 7 -14 15 -21 13 -10 15 -9 15 9 0 12 -6 21 -15 21
-8 0 -15 -4 -15 -9z"/>
<path d="M9593 5063 c-20 -8 -15 -31 8 -38 17 -6 20 -13 15 -36 -6 -33 9 -40
17 -8 4 16 -17 91 -26 88 -1 0 -8 -3 -14 -6z"/>
<path d="M9688 5043 c-10 -2 -18 -13 -18 -23 0 -28 18 -34 22 -8 2 15 9 22 20
22 10 -1 15 2 12 7 -5 9 -8 10 -36 2z"/>
<path d="M9760 5035 c0 -9 6 -12 15 -9 8 4 15 10 15 15 0 5 -7 9 -15 9 -8 0
-15 -7 -15 -15z"/>
<path d="M9820 5044 c0 -10 31 -36 37 -31 10 10 -6 37 -22 37 -8 0 -15 -3 -15
-6z"/>
<path d="M9893 5026 c-13 -13 -22 -34 -22 -47 1 -20 2 -21 6 -5 3 10 14 28 24
39 16 18 25 37 17 37 -2 0 -13 -11 -25 -24z"/>
<path d="M9775 5000 c-3 -6 1 -13 10 -16 19 -8 30 0 20 15 -8 14 -22 14 -30 1z"/>
<path d="M9505 4950 c3 -5 8 -10 11 -10 2 0 4 5 4 10 0 6 -5 10 -11 10 -5 0
-7 -4 -4 -10z"/>
<path d="M9861 4934 c0 -11 3 -14 6 -6 3 7 2 16 -1 19 -3 4 -6 -2 -5 -13z"/>
<path d="M9600 4906 c0 -9 5 -16 10 -16 6 0 10 4 10 9 0 6 -4 13 -10 16 -5 3
-10 -1 -10 -9z"/>
<path d="M9670 4889 c0 -5 5 -7 10 -4 6 3 10 8 10 11 0 2 -4 4 -10 4 -5 0 -10
-5 -10 -11z"/>
<path d="M9611 4863 c1 -10 5 -31 9 -48 7 -27 8 -25 9 18 0 26 -3 47 -9 47 -5
0 -9 -8 -9 -17z"/>
<path d="M9860 4855 c0 -8 5 -15 10 -15 6 0 10 7 10 15 0 8 -4 15 -10 15 -5 0
-10 -7 -10 -15z"/>
<path d="M9710 4843 c0 -12 5 -25 10 -28 13 -8 13 15 0 35 -8 12 -10 11 -10
-7z"/>
<path d="M10045 4810 c3 -5 13 -10 21 -10 8 0 14 5 14 10 0 6 -9 10 -21 10
-11 0 -17 -4 -14 -10z"/>
<path d="M9867 4803 c-13 -12 -7 -23 13 -23 11 0 20 7 20 15 0 15 -21 21 -33
8z"/>
<path d="M9805 4790 c27 -12 35 -12 35 0 0 6 -12 10 -27 9 -25 0 -26 -1 -8 -9z"/>
<path d="M9954 4789 c-4 -7 4 -20 17 -30 20 -15 24 -16 27 -3 4 16 -15 44 -29
44 -4 0 -11 -5 -15 -11z"/>
<path d="M10000 4711 c0 -11 26 -22 34 -14 12 12 5 23 -14 23 -11 0 -20 -4
-20 -9z"/>
<path d="M10000 4656 c0 -9 7 -16 16 -16 9 0 14 5 12 12 -6 18 -28 21 -28 4z"/>
<path d="M9800 4651 c0 -6 5 -13 10 -16 6 -3 10 1 10 9 0 9 -4 16 -10 16 -5 0
-10 -4 -10 -9z"/>
<path d="M9950 4581 c0 -5 5 -13 10 -16 6 -3 10 -2 10 4 0 5 -4 13 -10 16 -5
3 -10 2 -10 -4z"/>
<path d="M9741 4564 c0 -11 3 -14 6 -6 3 7 2 16 -1 19 -3 4 -6 -2 -5 -13z"/>
<path d="M9717 4533 c-3 -5 -2 -15 2 -22 5 -7 11 -9 14 -4 3 5 2 15 -2 22 -5
7 -11 9 -14 4z"/>
<path d="M9895 4530 c-3 -5 3 -10 15 -10 12 0 18 5 15 10 -3 6 -10 10 -15 10
-5 0 -12 -4 -15 -10z"/>
<path d="M10195 4480 c-4 -6 -20 -8 -41 -4 -41 8 -43 -2 -6 -34 18 -15 23 -25
15 -28 -7 -3 -13 -13 -13 -21 0 -11 6 -14 23 -9 12 3 30 6 40 6 9 0 17 5 17
10 0 6 -6 10 -14 10 -8 0 -17 4 -20 9 -9 14 5 41 21 41 8 0 13 5 11 12 -6 16
-25 21 -33 8z"/>
<path d="M10002 4448 c5 -15 48 -18 48 -3 0 6 -11 11 -26 13 -18 3 -25 0 -22
-10z"/>
<path d="M9966 4413 c-3 -3 -3 -10 0 -14 7 -12 34 -11 34 0 0 11 -26 22 -34
14z"/>
<path d="M10080 4406 c0 -8 7 -16 15 -20 9 -3 15 0 15 8 0 8 -7 16 -15 20 -9
3 -15 0 -15 -8z"/>
<path d="M9815 4360 c-3 -5 -2 -10 4 -10 5 0 13 5 16 10 3 6 2 10 -4 10 -5 0
-13 -4 -16 -10z"/>
<path d="M9984 4349 c-3 -6 -1 -16 5 -22 8 -8 11 -5 11 11 0 24 -5 28 -16 11z"/>
<path d="M10161 4344 c0 -11 3 -14 6 -6 3 7 2 16 -1 19 -3 4 -6 -2 -5 -13z"/>
<path d="M10015 4341 c-3 -5 0 -13 7 -17 7 -4 22 -14 34 -21 18 -12 23 -11 34
2 12 14 10 15 -13 10 -23 -6 -27 -4 -27 14 0 21 -24 29 -35 12z"/>
<path d="M10185 4329 c4 -17 1 -32 -9 -42 -22 -22 -20 -30 4 -15 22 14 26 44
10 68 -8 11 -9 9 -5 -11z"/>
<path d="M9848 4323 c7 -3 16 -2 19 1 4 3 -2 6 -13 5 -11 0 -14 -3 -6 -6z"/>
<path d="M9960 4290 c0 -5 5 -10 10 -10 6 0 10 5 10 10 0 6 -4 10 -10 10 -5 0
-10 -4 -10 -10z"/>
<path d="M10120 4290 c0 -5 5 -10 10 -10 6 0 10 5 10 10 0 6 -4 10 -10 10 -5
0 -10 -4 -10 -10z"/>
<path d="M9900 4222 c0 -15 11 -21 27 -15 12 5 12 7 1 14 -17 11 -28 11 -28 1z"/>
<path d="M10161 4214 c0 -11 3 -14 6 -6 3 7 2 16 -1 19 -3 4 -6 -2 -5 -13z"/>
<path d="M10201 4191 c-11 -21 -11 -25 4 -33 9 -5 20 -19 25 -31 7 -19 9 -16
9 16 1 20 -3 37 -8 37 -5 0 -11 8 -13 18 -3 14 -6 13 -17 -7z"/>
<path d="M9860 4190 c0 -5 5 -10 10 -10 6 0 10 5 10 10 0 6 -4 10 -10 10 -5 0
-10 -4 -10 -10z"/>
<path d="M10275 4170 c3 -5 10 -10 16 -10 5 0 9 5 9 10 0 6 -7 10 -16 10 -8 0
-12 -4 -9 -10z"/>
<path d="M10275 4110 c3 -5 10 -10 16 -10 5 0 9 5 9 10 0 6 -7 10 -16 10 -8 0
-12 -4 -9 -10z"/>
<path d="M10199 4054 c-11 -14 -10 -16 9 -12 13 1 23 7 23 13 1 17 -17 16 -32
-1z"/>
<path d="M10270 4060 c0 -5 7 -10 15 -10 8 0 15 5 15 10 0 6 -7 10 -15 10 -8
0 -15 -4 -15 -10z"/>
<path d="M10330 4055 c7 -8 21 -15 31 -15 11 0 19 7 19 15 0 10 -10 15 -31 15
-27 0 -30 -2 -19 -15z"/>
<path d="M10250 4018 c0 -20 1 -21 20 -3 11 10 20 20 20 22 0 1 -9 3 -20 3
-14 0 -20 -7 -20 -22z"/>
<path d="M10135 4000 c-3 -5 3 -10 14 -10 12 0 21 5 21 10 0 6 -6 10 -14 10
-8 0 -18 -4 -21 -10z"/>
<path d="M10202 4001 c4 -13 18 -16 19 -4 0 4 -5 9 -11 12 -7 2 -11 -2 -8 -8z"/>
<path d="M10285 3950 c-10 -31 5 -45 22 -21 14 21 11 41 -7 41 -5 0 -11 -9
-15 -20z"/>
<path d="M10232 3883 c2 -9 9 -18 16 -21 18 -6 15 25 -4 32 -11 4 -14 1 -12
-11z"/>
<path d="M10314 3860 c1 -8 10 -16 21 -17 15 -1 15 0 3 3 -9 3 -19 11 -21 17
-2 7 -3 5 -3 -3z"/>
<path d="M10190 3851 c0 -5 5 -13 10 -16 6 -3 10 -2 10 4 0 5 -4 13 -10 16 -5
3 -10 2 -10 -4z"/>
<path d="M10375 3816 l-40 -12 34 -12 c43 -15 44 -15 37 3 -4 11 1 15 19 15
14 0 25 5 25 10 0 13 -25 12 -75 -4z"/>
<path d="M10305 3760 c-3 -5 -1 -10 4 -10 6 0 11 5 11 10 0 6 -2 10 -4 10 -3
0 -8 -4 -11 -10z"/>
<path d="M10391 3714 c0 -11 3 -14 6 -6 3 7 2 16 -1 19 -3 4 -6 -2 -5 -13z"/>
<path d="M10410 3713 c0 -14 2 -15 9 -4 5 7 14 10 20 7 6 -4 11 -2 11 3 0 6
-9 11 -20 11 -12 0 -20 -7 -20 -17z"/>
<path d="M10480 3724 c0 -7 27 -34 34 -34 13 0 5 28 -10 34 -19 7 -24 8 -24 0z"/>
<path d="M10376 3662 c-4 -7 -16 -10 -27 -7 -27 9 -24 -14 4 -24 15 -6 24 -4
30 6 11 18 4 42 -7 25z"/>
<path d="M10450 3654 c0 -25 63 -32 93 -10 9 7 17 15 17 17 0 2 -25 4 -55 5
-36 0 -55 -4 -55 -12z"/>
<path d="M10573 3651 c3 -14 -1 -26 -16 -36 -26 -18 -20 -25 16 -18 24 5 28
10 25 36 -2 17 -9 33 -17 35 -10 3 -12 -1 -8 -17z"/>
<path d="M10416 3624 c-4 -9 -4 -19 -1 -22 2 -3 7 3 11 12 4 9 4 19 1 22 -2 3
-7 -3 -11 -12z"/>
<path d="M10530 3549 c0 -15 5 -19 15 -15 8 3 15 1 15 -4 0 -17 14 -10 33 15
l18 25 -41 0 c-34 0 -40 -3 -40 -21z"/>
<path d="M10470 3520 c0 -19 3 -21 12 -12 9 9 9 15 0 24 -9 9 -12 7 -12 -12z"/>
<path d="M10530 3490 c0 -21 20 -25 55 -10 19 8 19 9 -2 9 -12 1 -25 6 -28 11
-10 17 -25 11 -25 -10z"/>
<path d="M10672 3428 c-7 -7 -12 -25 -12 -40 0 -26 2 -27 20 -16 12 8 20 24
20 40 0 30 -9 35 -28 16z"/>
<path d="M10405 3410 c-18 -8 -17 -9 8 -9 16 -1 26 3 22 9 -3 6 -7 10 -8 9 -1
0 -11 -4 -22 -9z"/>
<path d="M10590 3400 c0 -11 4 -20 9 -20 11 0 22 26 14 34 -12 12 -23 5 -23
-14z"/>
<path d="M10735 3383 c0 -14 6 -28 13 -31 10 -3 13 4 10 24 -4 36 -24 42 -23
7z"/>
<path d="M10350 3360 c0 -5 5 -10 11 -10 5 0 7 5 4 10 -3 6 -8 10 -11 10 -2 0
-4 -4 -4 -10z"/>
<path d="M10680 3321 c0 -5 5 -13 10 -16 6 -3 10 -2 10 4 0 5 -4 13 -10 16 -5
3 -10 2 -10 -4z"/>
<path d="M10642 3296 c1 -10 8 -17 13 -17 15 1 12 24 -3 29 -9 3 -13 -2 -10
-12z"/>
<path d="M10762 3286 c7 -8 15 -12 17 -11 5 6 -10 25 -20 25 -5 0 -4 -6 3 -14z"/>
<path d="M10390 3270 c0 -5 5 -10 10 -10 6 0 10 5 10 10 0 6 -4 10 -10 10 -5
0 -10 -4 -10 -10z"/>
<path d="M10721 3245 c22 -37 39 -45 39 -19 0 15 -37 53 -52 54 -4 0 2 -16 13
-35z"/>
<path d="M10510 3260 c0 -5 5 -10 10 -10 6 0 10 5 10 10 0 6 -4 10 -10 10 -5
0 -10 -4 -10 -10z"/>
<path d="M10667 3194 c-11 -11 3 -24 18 -18 8 4 12 10 9 15 -6 11 -18 12 -27
3z"/>
<path d="M10740 3180 c0 -5 5 -10 10 -10 6 0 10 5 10 10 0 6 -4 10 -10 10 -5
0 -10 -4 -10 -10z"/>
<path d="M10550 3160 c0 -5 5 -10 11 -10 5 0 7 5 4 10 -3 6 -8 10 -11 10 -2 0
-4 -4 -4 -10z"/>
<path d="M10710 3151 c0 -5 5 -13 10 -16 6 -3 10 -2 10 4 0 5 -4 13 -10 16 -5
3 -10 2 -10 -4z"/>
<path d="M10873 3130 c-26 -11 -31 -45 -7 -54 9 -3 12 -2 9 5 -4 5 3 18 14 28
34 30 27 38 -16 21z"/>
<path d="M10737 3116 c-4 -10 -1 -19 8 -22 8 -4 15 -12 15 -20 0 -8 5 -14 10
-14 6 0 10 7 10 15 0 8 -4 15 -8 15 -5 0 -13 10 -19 22 -8 19 -10 20 -16 4z"/>
<path d="M10797 3013 c-5 -26 -4 -26 9 -8 16 22 18 35 5 35 -5 0 -11 -12 -14
-27z"/>
<path d="M10960 2999 c0 -5 -7 -9 -15 -9 -8 0 -15 -7 -15 -15 0 -16 12 -20 24
-8 4 4 19 7 34 8 37 0 36 29 0 32 -16 1 -28 -2 -28 -8z"/>
<path d="M10834 2959 c-7 -12 15 -31 28 -23 4 3 8 12 8 20 0 17 -26 19 -36 3z"/>
<path d="M10707 2926 c-3 -8 -3 -17 0 -20 9 -9 34 15 27 25 -8 13 -21 11 -27
-5z"/>
<path d="M10866 2905 c-14 -13 -26 -29 -26 -35 0 -17 28 -11 48 10 18 20 19
20 41 -4 15 -16 29 -22 43 -18 l22 5 -22 8 c-13 5 -25 17 -29 26 -14 39 -40
42 -77 8z"/>
<path d="M10993 2922 c-7 -5 -9 -13 -3 -22 7 -11 11 -11 24 -1 24 20 6 40 -21
23z"/>
<path d="M10585 2910 c3 -5 8 -10 11 -10 2 0 4 5 4 10 0 6 -5 10 -11 10 -5 0
-7 -4 -4 -10z"/>
<path d="M10625 2901 c-3 -5 -1 -12 5 -16 5 -3 10 1 10 9 0 18 -6 21 -15 7z"/>
<path d="M11070 2870 c0 -5 9 -10 19 -10 11 0 23 5 26 10 4 6 -5 10 -19 10
-14 0 -26 -4 -26 -10z"/>
<path d="M11025 2850 c-3 -5 -1 -10 4 -10 6 0 11 5 11 10 0 6 -2 10 -4 10 -3
0 -8 -4 -11 -10z"/>
<path d="M10800 2822 c0 -4 11 -9 25 -10 14 -1 25 3 25 8 0 6 -11 10 -25 10
-14 0 -25 -4 -25 -8z"/>
<path d="M10968 2813 c7 -3 16 -2 19 1 4 3 -2 6 -13 5 -11 0 -14 -3 -6 -6z"/>
<path d="M11036 2811 c-4 -5 -3 -16 0 -25 3 -9 1 -16 -5 -16 -6 0 -11 5 -11
10 0 12 -37 14 -44 2 -9 -15 11 -32 35 -30 21 3 24 -1 22 -24 -1 -16 2 -28 7
-28 5 0 9 27 9 60 -1 60 -3 68 -13 51z"/>
<path d="M11100 2795 c0 -28 10 -37 26 -25 6 6 18 9 25 8 8 -2 15 6 17 18 2
17 -2 20 -33 20 -29 0 -35 -4 -35 -21z"/>
<path d="M10710 2799 c0 -5 5 -7 10 -4 6 3 10 8 10 11 0 2 -4 4 -10 4 -5 0
-10 -5 -10 -11z"/>
<path d="M10560 2790 c0 -5 4 -10 9 -10 6 0 13 5 16 10 3 6 -1 10 -9 10 -9 0
-16 -4 -16 -10z"/>
<path d="M10865 2790 c4 -6 11 -8 16 -5 14 9 11 15 -7 15 -8 0 -12 -5 -9 -10z"/>
<path d="M10920 2774 c0 -9 5 -14 12 -12 18 6 21 28 4 28 -9 0 -16 -7 -16 -16z"/>
<path d="M10505 2760 c3 -5 8 -10 11 -10 2 0 4 5 4 10 0 6 -5 10 -11 10 -5 0
-7 -4 -4 -10z"/>
<path d="M10785 2760 c3 -5 8 -10 11 -10 2 0 4 5 4 10 0 6 -5 10 -11 10 -5 0
-7 -4 -4 -10z"/>
<path d="M10835 2750 c-8 -13 30 -53 45 -48 12 4 -11 50 -27 55 -6 2 -14 -1
-18 -7z"/>
<path d="M10912 2669 c2 -7 10 -15 17 -17 8 -3 12 1 9 9 -2 7 -10 15 -17 17
-8 3 -12 -1 -9 -9z"/>
<path d="M11030 2615 c0 -25 1 -25 25 -9 27 18 25 34 -6 34 -14 0 -19 -7 -19
-25z"/>
<path d="M10943 2594 c-18 -20 -20 -26 -8 -31 8 -3 15 -12 15 -20 0 -8 5 -11
10 -8 8 5 8 11 0 20 -9 10 -7 16 9 24 12 7 18 17 15 26 -8 21 -15 19 -41 -11z"/>
<path d="M10890 2600 c0 -5 7 -10 16 -10 8 0 12 5 9 10 -3 6 -10 10 -16 10 -5
0 -9 -4 -9 -10z"/>
<path d="M10800 2580 c0 -5 5 -10 10 -10 6 0 10 5 10 10 0 6 -4 10 -10 10 -5
0 -10 -4 -10 -10z"/>
<path d="M11010 2564 c0 -8 5 -12 10 -9 6 4 8 11 5 16 -9 14 -15 11 -15 -7z"/>
<path d="M11030 2519 c0 -11 5 -17 10 -14 6 3 10 13 10 21 0 8 -4 14 -10 14
-5 0 -10 -9 -10 -21z"/>
<path d="M10970 2511 c0 -5 5 -13 10 -16 6 -3 10 -2 10 4 0 5 -4 13 -10 16 -5
3 -10 2 -10 -4z"/>
<path d="M10927 2483 c-4 -3 -7 -11 -7 -17 0 -6 5 -5 12 2 6 6 9 14 7 17 -3 3
-9 2 -12 -2z"/>
<path d="M10980 2455 c0 -8 5 -15 10 -15 6 0 10 7 10 15 0 8 -4 15 -10 15 -5
0 -10 -7 -10 -15z"/>
<path d="M11148 2453 c6 -2 18 -2 25 0 6 3 1 5 -13 5 -14 0 -19 -2 -12 -5z"/>
<path d="M11026 2412 c-7 -12 22 -45 33 -37 16 9 13 32 -5 39 -20 8 -22 8 -28
-2z"/>
<path d="M10968 2403 c7 -3 16 -2 19 1 4 3 -2 6 -13 5 -11 0 -14 -3 -6 -6z"/>
<path d="M11151 2401 c-7 -5 -12 -13 -10 -19 2 -6 14 -2 28 9 23 19 9 27 -18
10z"/>
<path d="M10820 2374 c0 -9 5 -14 12 -12 18 6 21 28 4 28 -9 0 -16 -7 -16 -16z"/>
<path d="M10938 2363 c7 -3 16 -2 19 1 4 3 -2 6 -13 5 -11 0 -14 -3 -6 -6z"/>
<path d="M10978 2363 c7 -3 16 -2 19 1 4 3 -2 6 -13 5 -11 0 -14 -3 -6 -6z"/>
<path d="M10748 2353 c7 -3 16 -2 19 1 4 3 -2 6 -13 5 -11 0 -14 -3 -6 -6z"/>
<path d="M11085 2350 c3 -5 12 -7 20 -3 21 7 19 13 -6 13 -11 0 -18 -4 -14
-10z"/>
<path d="M10930 2330 c0 -11 4 -20 9 -20 5 0 7 9 4 20 -3 11 -7 20 -9 20 -2 0
-4 -9 -4 -20z"/>
<path d="M11070 2320 c0 -5 7 -10 15 -10 8 0 15 5 15 10 0 6 -7 10 -15 10 -8
0 -15 -4 -15 -10z"/>
<path d="M10880 2299 c0 -5 5 -7 10 -4 6 3 10 8 10 11 0 2 -4 4 -10 4 -5 0
-10 -5 -10 -11z"/>
<path d="M10827 2253 c-9 -47 13 -43 28 5 4 16 2 22 -8 22 -8 0 -17 -12 -20
-27z"/>
<path d="M11072 2268 c6 -18 28 -21 28 -4 0 9 -7 16 -16 16 -9 0 -14 -5 -12
-12z"/>
<path d="M10970 2243 c1 -18 18 -35 24 -24 4 6 4 16 1 21 -7 12 -25 13 -25 3z"/>
<path d="M10880 2225 c0 -9 6 -12 15 -9 8 4 15 10 15 15 0 5 -7 9 -15 9 -8 0
-15 -7 -15 -15z"/>
<path d="M11000 2180 c0 -5 4 -10 9 -10 6 0 13 5 16 10 3 6 -1 10 -9 10 -9 0
-16 -4 -16 -10z"/>
<path d="M10860 2110 c0 -5 4 -10 9 -10 6 0 13 5 16 10 3 6 -1 10 -9 10 -9 0
-16 -4 -16 -10z"/>
<path d="M10735 1990 c3 -5 8 -10 11 -10 2 0 4 5 4 10 0 6 -5 10 -11 10 -5 0
-7 -4 -4 -10z"/>
<path d="M10495 1930 c-3 -5 -1 -10 4 -10 6 0 11 5 11 10 0 6 -2 10 -4 10 -3
0 -8 -4 -11 -10z"/>
<path d="M10138 1723 c7 -3 16 -2 19 1 4 3 -2 6 -13 5 -11 0 -14 -3 -6 -6z"/>
<path d="M10178 1723 c7 -3 16 -2 19 1 4 3 -2 6 -13 5 -11 0 -14 -3 -6 -6z"/>
<path d="M10081 1704 c0 -11 3 -14 6 -6 3 7 2 16 -1 19 -3 4 -6 -2 -5 -13z"/>
<path d="M10030 1685 c0 -13 4 -14 20 -5 11 6 20 13 20 15 0 3 -9 5 -20 5 -11
0 -20 -7 -20 -15z"/>
<path d="M9933 1633 c-7 -2 -13 -9 -13 -14 0 -14 26 -10 40 6 10 12 10 15 -1
14 -8 0 -20 -3 -26 -6z"/>
<path d="M9486 1485 c-3 -10 1 -15 14 -15 25 0 34 16 14 24 -21 8 -21 8 -28
-9z"/>
<path d="M9118 1333 c6 -2 18 -2 25 0 6 3 1 5 -13 5 -14 0 -19 -2 -12 -5z"/>
<path d="M8745 1230 c4 -6 11 -8 16 -5 14 9 11 15 -7 15 -8 0 -12 -5 -9 -10z"/>
<path d="M7514 7579 c-7 -12 13 -29 35 -29 11 0 10 5 -4 20 -21 23 -22 23 -31
9z"/>
<path d="M8510 6825 c0 -8 5 -15 10 -15 6 0 10 7 10 15 0 8 -4 15 -10 15 -5 0
-10 -7 -10 -15z"/>
<path d="M3628 2543 c7 -3 16 -2 19 1 4 3 -2 6 -13 5 -11 0 -14 -3 -6 -6z"/>
<path d="M3520 2520 c0 -6 7 -10 15 -10 8 0 15 2 15 4 0 2 -7 6 -15 10 -8 3
-15 1 -15 -4z"/>
<path d="M3068 2443 c7 -3 16 -2 19 1 4 3 -2 6 -13 5 -11 0 -14 -3 -6 -6z"/>
<path d="M2958 2413 c6 -2 18 -2 25 0 6 3 1 5 -13 5 -14 0 -19 -2 -12 -5z"/>
<path d="M2710 2370 c-13 -8 -12 -10 3 -10 9 0 17 5 17 10 0 12 -1 12 -20 0z"/>
<path d="M2538 2353 c7 -3 16 -2 19 1 4 3 -2 6 -13 5 -11 0 -14 -3 -6 -6z"/>
<path d="M2605 2350 c3 -5 8 -10 11 -10 2 0 4 5 4 10 0 6 -5 10 -11 10 -5 0
-7 -4 -4 -10z"/>
<path d="M1875 2340 c-3 -5 -1 -10 4 -10 6 0 11 5 11 10 0 6 -2 10 -4 10 -3 0
-8 -4 -11 -10z"/>
<path d="M2093 2343 c9 -2 23 -2 30 0 6 3 -1 5 -18 5 -16 0 -22 -2 -12 -5z"/>
<path d="M2225 2310 c-3 -5 -1 -10 4 -10 6 0 11 5 11 10 0 6 -2 10 -4 10 -3 0
-8 -4 -11 -10z"/>
<path d="M2348 2313 c6 -2 18 -2 25 0 6 3 1 5 -13 5 -14 0 -19 -2 -12 -5z"/>
<path d="M1912 2298 c6 -18 28 -21 28 -4 0 9 -7 16 -16 16 -9 0 -14 -5 -12
-12z"/>
<path d="M2093 2263 c9 -2 23 -2 30 0 6 3 -1 5 -18 5 -16 0 -22 -2 -12 -5z"/>
<path d="M1960 2240 c0 -5 5 -10 11 -10 5 0 7 5 4 10 -3 6 -8 10 -11 10 -2 0
-4 -4 -4 -10z"/>
<path d="M1600 2200 c0 -5 9 -10 20 -10 11 0 20 5 20 10 0 6 -9 10 -20 10 -11
0 -20 -4 -20 -10z"/>
<path d="M1185 2090 c-19 -8 -19 -9 2 -9 12 -1 25 4 28 9 7 12 -2 12 -30 0z"/>
<path d="M40 2050 c0 -5 5 -10 11 -10 5 0 7 5 4 10 -3 6 -8 10 -11 10 -2 0 -4
-4 -4 -10z"/>
<path d="M713 2036 c0 -7 15 -12 33 -12 39 0 38 3 -3 15 -21 6 -30 5 -30 -3z"/>
</g>
</svg>
