<?xml version="1.0" standalone="no"?>
<!DOCTYPE svg PUBLIC "-//W3C//DTD SVG 20010904//EN"
 "http://www.w3.org/TR/2001/REC-SVG-20010904/DTD/svg10.dtd">
<svg version="1.0" xmlns="http://www.w3.org/2000/svg"
 width="300.000000pt" height="203.000000pt" viewBox="0 0 300.000000 203.000000"
 preserveAspectRatio="xMidYMid meet">

<g transform="translate(0.000000,203.000000) scale(0.100000,-0.100000)"
fill="#000000" stroke="none">
<path d="M321 1998 c-11 -4 -24 -16 -30 -27 -8 -13 -11 -263 -11 -785 l0 -766
-130 -127 c-147 -146 -152 -158 -77 -210 l40 -28 1387 -2 1386 -3 42 31 c75
55 72 64 -72 208 l-126 126 0 767 0 767 -24 28 -24 28 -1171 0 c-644 0 -1180
-3 -1190 -7z m1329 -420 c190 -90 256 -319 144 -495 -113 -178 -369 -210 -523
-65 -75 70 -106 145 -106 252 0 71 4 94 26 141 42 88 123 159 219 190 14 5 61
7 105 6 62 -2 92 -8 135 -29z m-120 -1004 c0 -19 18 -18 22 1 2 13 5 12 15 -4
12 -19 9 -19 -62 -18 -64 1 -75 4 -75 19 0 11 9 18 28 20 41 5 72 -3 72 -18z
m-417 -161 c-7 -2 -21 -2 -30 0 -10 3 -4 5 12 5 17 0 24 -2 18 -5z m110 0 c-7
-2 -21 -2 -30 0 -10 3 -4 5 12 5 17 0 24 -2 18 -5z m110 0 c-13 -2 -35 -2 -50
0 -16 2 -5 4 22 4 28 0 40 -2 28 -4z m235 0 c-38 -2 -98 -2 -135 0 -38 2 -7 3
67 3 74 0 105 -1 68 -3z m220 0 c-26 -2 -71 -2 -100 0 -29 2 -8 3 47 3 55 0
79 -1 53 -3z m-275 -260 c-35 -2 -91 -2 -125 0 -35 2 -7 3 62 3 69 0 97 -1 63
-3z m145 0 c-16 -2 -40 -2 -55 0 -16 2 -3 4 27 4 30 0 43 -2 28 -4z m-130 -20
c-10 -2 -28 -2 -40 0 -13 2 -5 4 17 4 22 1 32 -1 23 -4z"/>
<path d="M1390 1553 c-62 -23 -150 -113 -173 -178 -37 -108 -15 -222 60 -305
152 -169 401 -130 508 79 64 127 -4 319 -140 390 -63 33 -185 40 -255 14z
m-37 -215 c12 -6 27 -18 33 -27 10 -13 17 -12 53 14 29 19 45 25 52 18 7 -7
-1 -20 -27 -41 -51 -42 -36 -53 16 -12 27 21 46 30 58 25 14 -5 9 -13 -28 -45
-50 -44 -43 -54 11 -15 23 17 36 36 39 58 3 20 12 33 23 35 15 3 17 -5 17 -56
l0 -60 35 -4 35 -4 0 63 c0 56 2 63 20 63 18 0 20 -7 20 -59 l0 -60 33 -3 c20
-2 32 -8 32 -18 0 -12 -20 -16 -107 -18 l-107 -3 -3 26 -3 26 -37 -31 -38 -31
-41 33 c-29 22 -43 29 -46 20 -7 -20 -59 -42 -98 -42 l-35 0 0 80 0 80 36 0
c19 0 45 -5 57 -12z"/>
<path d="M1300 1270 c0 -36 3 -40 25 -40 18 0 26 7 31 25 7 29 -10 55 -37 55
-15 0 -19 -8 -19 -40z"/>
</g>
</svg>
