<?xml version="1.0" standalone="no"?>
<!DOCTYPE svg PUBLIC "-//W3C//DTD SVG 20010904//EN"
 "http://www.w3.org/TR/2001/REC-SVG-20010904/DTD/svg10.dtd">
<svg version="1.0" xmlns="http://www.w3.org/2000/svg"
 width="825.000000pt" height="510.000000pt" viewBox="0 0 825.000000 510.000000"
 preserveAspectRatio="xMidYMid meet">

<g transform="translate(0.000000,510.000000) scale(0.100000,-0.100000)"
fill="#000000" stroke="none">
<path d="M2082 5083 c26 -92 78 -287 128 -473 33 -124 94 -351 136 -505 42
-154 96 -354 120 -445 24 -91 57 -214 74 -275 16 -60 52 -195 80 -300 27 -104
66 -248 85 -320 19 -71 58 -218 86 -325 28 -107 70 -267 94 -355 43 -160 92
-343 145 -551 16 -61 39 -146 50 -189 21 -80 20 -89 -15 -98 -16 -4 -14 -5 6
-6 23 -1 39 -17 39 -38 0 -3 -22 -2 -50 2 -41 6 -50 4 -50 -8 0 -10 17 -17 58
-22 66 -9 56 -16 -55 -35 -70 -13 -149 -8 -265 17 -21 4 -28 1 -28 -10 0 -16
29 -27 73 -27 54 0 25 -18 -48 -29 -96 -14 -129 -14 -232 1 -73 11 -84 10 -95
-4 -18 -22 -221 -61 -298 -56 -38 2 -63 -1 -68 -8 -9 -15 -245 -56 -302 -52
-31 2 -44 -1 -43 -9 2 -11 -15 -16 -165 -44 -35 -6 -89 -9 -121 -6 -47 5 -60
3 -65 -8 -10 -28 5 -42 59 -54 44 -10 68 -9 142 4 48 9 106 19 128 22 22 3 48
12 57 21 20 16 122 11 233 -12 54 -11 57 -13 30 -19 -123 -27 -163 -29 -250
-12 -48 9 -88 15 -90 13 -13 -15 -13 -47 0 -58 18 -15 144 -40 203 -40 23 0
53 -6 65 -14 26 -17 135 -36 201 -36 26 0 57 -7 70 -15 28 -19 118 -36 205
-41 36 -1 67 -8 71 -15 10 -15 161 -48 223 -49 29 0 54 -6 63 -14 25 -25 99
-30 203 -12 53 9 100 16 104 16 4 0 7 6 7 14 0 20 16 29 41 21 13 -4 18 -12
15 -22 -5 -12 1 -14 34 -11 35 3 40 1 40 -17 1 -20 1 -20 12 0 32 57 54 44 72
-42 7 -32 7 -32 -28 -26 -38 6 -215 -13 -253 -28 -13 -5 -23 -13 -23 -19 0 -7
7 -7 22 1 12 6 60 12 107 12 55 0 77 2 61 7 -18 6 -8 8 35 8 33 0 69 -3 79 -7
17 -7 45 -73 46 -108 0 -20 -73 -25 -151 -9 -80 17 -118 20 -84 7 11 -4 55
-14 98 -21 68 -11 80 -16 88 -37 14 -36 10 -115 -6 -137 -16 -21 -42 -19 -160
9 -33 8 -112 26 -175 40 -63 15 -122 28 -130 31 -11 3 -16 21 -18 66 -2 34 -5
64 -7 66 -5 6 -167 41 -187 42 -15 0 -18 -9 -18 -60 0 -33 -2 -60 -5 -60 -2 0
-60 13 -127 29 -68 16 -141 33 -163 38 -36 8 -40 12 -43 43 -4 59 -11 78 -30
84 -9 3 -296 62 -637 130 -1238 248 -1137 230 -1151 211 -22 -29 -48 -14 -56
33 -9 52 -14 62 -37 62 -25 0 -41 -20 -41 -53 0 -22 -4 -28 -16 -23 -9 3 -22
6 -30 6 -9 0 -14 11 -14 34 0 32 -20 66 -39 66 -15 0 -41 -37 -41 -58 0 -20
-2 -21 -44 -8 -35 11 -43 11 -40 1 17 -43 393 -260 513 -296 33 -10 46 -20 53
-40 10 -30 39 -43 116 -55 51 -8 62 -20 24 -27 -15 -3 -40 -11 -57 -17 l-30
-12 25 -13 c35 -18 334 -91 740 -180 63 -14 151 -34 195 -45 44 -10 134 -31
200 -45 66 -15 149 -34 185 -42 36 -8 117 -25 180 -39 63 -13 138 -29 165 -35
28 -6 68 -15 90 -20 22 -4 66 -15 98 -24 50 -13 164 -15 810 -15 491 0 764 4
787 10 19 6 170 42 335 80 464 107 1021 236 1115 259 47 12 105 25 130 30 25
5 104 22 175 39 72 16 202 46 290 66 88 20 176 40 195 46 19 5 107 26 195 46
88 20 255 58 370 85 116 27 239 56 275 64 36 8 92 22 125 30 33 9 102 26 153
37 50 12 92 25 92 29 0 5 -17 11 -37 14 -73 12 -67 18 49 45 153 35 191 62
207 143 4 21 15 35 31 42 14 6 70 33 124 61 107 54 136 86 136 151 0 24 5 33
16 33 10 0 14 5 10 16 -3 8 -2 13 3 9 10 -6 31 79 31 125 0 16 -11 64 -25 107
-13 43 -25 83 -26 88 0 6 -12 29 -26 52 -16 27 -22 51 -19 65 3 13 3 17 0 10
-9 -20 -43 66 -105 258 -29 91 -57 171 -62 178 -5 7 -7 15 -3 19 3 3 6 0 6 -7
0 -7 2 -11 5 -8 3 3 -3 30 -15 59 -11 30 -30 88 -41 129 -11 41 -27 84 -34 95
-7 11 -15 36 -19 55 -7 37 -18 75 -65 235 -16 55 -51 172 -76 260 -55 191 -79
271 -138 470 -25 83 -50 166 -55 185 -6 19 -27 91 -47 160 -56 191 -106 360
-120 410 -17 58 -78 259 -115 380 -16 52 -36 120 -44 150 -8 30 -30 107 -49
170 l-34 115 -2446 3 c-1346 1 -2447 -2 -2447 -6 0 -8 14 -62 51 -202 11 -41
31 -118 45 -170 14 -52 38 -145 55 -207 16 -61 29 -117 28 -125 0 -11 -59 195
-160 567 -17 61 -33 118 -35 128 -4 13 -16 17 -51 17 -38 0 -45 -3 -41 -17z
m317 -798 c0 -5 -4 -3 -9 5 -5 8 -9 22 -9 30 0 16 17 -16 18 -35z m8 -37 c-3
-8 -6 -5 -6 6 -1 11 2 17 5 13 3 -3 4 -12 1 -19z m10 -40 c-3 -8 -6 -5 -6 6
-1 11 2 17 5 13 3 -3 4 -12 1 -19z m1737 -970 c9 -12 16 -28 16 -35 0 -19 -27
-16 -39 4 -12 23 -22 14 -15 -13 4 -16 11 -20 31 -16 31 6 43 -11 43 -59 0
-31 -4 -38 -24 -43 -48 -12 -62 5 -87 103 -12 49 -12 54 6 67 27 20 52 17 69
-8z m-103 -53 c33 -123 33 -115 0 -115 -22 0 -30 6 -34 23 -4 12 -13 31 -22
42 l-16 20 5 -20 c19 -75 19 -75 -3 -75 -13 0 -21 6 -21 18 0 9 -9 46 -20 80
-25 81 -25 82 8 82 23 0 32 -8 50 -42 12 -24 20 -34 18 -23 -3 11 -8 33 -12
48 -6 25 -4 28 12 25 13 -2 23 -20 35 -63z m-139 -31 c19 -80 16 -100 -13
-109 -26 -9 -54 9 -67 42 -27 73 -40 129 -32 137 19 19 37 -5 50 -63 7 -34 17
-64 21 -67 13 -8 11 27 -6 81 -16 54 -13 65 13 59 12 -4 22 -26 34 -80z m-152
56 c34 -34 21 -60 -17 -35 -13 9 -23 11 -23 5 0 -5 18 -21 40 -35 22 -14 40
-32 40 -39 0 -8 3 -21 6 -29 7 -18 -21 -47 -47 -47 -23 0 -59 34 -59 55 0 21
37 19 49 -2 10 -17 10 -17 11 0 0 9 -4 17 -9 17 -5 0 -23 12 -40 26 -36 30
-42 76 -13 93 25 15 40 13 62 -9z m-96 -82 c10 -46 19 -85 20 -88 0 -3 -8 -6
-20 -8 -17 -2 -22 5 -31 45 l-11 48 1 -50 c2 -39 -2 -50 -15 -53 -12 -2 -21
11 -33 48 -9 28 -19 49 -22 46 -3 -3 2 -25 10 -50 16 -46 16 -46 -7 -46 -19 0
-25 10 -44 84 -12 46 -22 87 -22 90 0 3 16 6 35 6 27 0 35 -4 35 -17 0 -10 5
-25 11 -33 8 -11 9 -8 5 16 -6 38 -1 44 38 44 31 0 31 -1 50 -82z m-334 35
c16 -20 18 -28 8 -34 -7 -5 -20 -1 -29 7 -11 10 -19 12 -23 5 -4 -5 4 -15 16
-22 46 -23 68 -52 68 -86 0 -26 -5 -34 -24 -39 -35 -8 -61 3 -74 32 -10 20 -9
26 3 31 9 3 25 -3 35 -12 11 -10 20 -13 20 -7 0 7 -18 24 -40 38 -69 46 -66
106 7 113 6 0 21 -11 33 -26z m146 -50 c35 -76 37 -103 10 -103 -13 0 -46 66
-46 95 0 7 -5 17 -11 21 -8 5 -10 0 -6 -17 3 -13 9 -41 12 -61 7 -36 6 -38
-18 -38 -26 0 -24 -9 -44 138 l-5 42 36 0 c36 0 38 -1 72 -77z m-341 -1993
c-3 -5 -17 -10 -31 -10 -14 0 -22 4 -19 10 3 6 17 10 31 10 14 0 22 -4 19 -10z
m-7 -38 c10 -4 -25 -14 -83 -23 -85 -15 -113 -16 -185 -6 l-85 12 85 17 c82
17 226 17 268 0z m-348 -56 l75 -12 -190 -32 c-104 -18 -262 -46 -350 -63
-152 -28 -164 -29 -250 -17 l-89 12 44 14 c25 7 57 11 72 9 15 -2 25 -1 23 2
-2 4 65 19 148 36 93 17 156 35 163 43 8 12 24 14 65 10 30 -4 77 -3 104 2 71
11 100 10 185 -4z m375 -12 c10 -11 13 -20 7 -26 -17 -17 -126 -21 -203 -7
l-74 13 78 12 c43 7 84 15 90 18 28 11 86 5 102 -10z m-978 -20 c-9 -10 -214
-44 -261 -44 -55 0 -42 7 39 21 39 6 88 15 110 19 52 10 120 12 112 4z m723
-36 l85 -13 -65 -12 c-83 -16 -158 -15 -240 1 l-65 13 50 7 c28 5 66 12 85 16
19 4 42 6 50 4 8 -1 53 -9 100 -16z m287 -44 c17 -36 0 -39 -120 -24 -104 14
-106 20 -12 38 93 17 119 15 132 -14z m-582 -3 l30 -6 -35 -17 -35 -18 50 2
c28 2 77 -1 110 -5 l60 -7 -69 15 c-38 8 -71 17 -75 21 -3 4 10 3 29 -1 19 -5
82 -9 140 -10 113 -2 220 -13 220 -24 0 -8 -339 -70 -365 -67 -34 5 -152 27
-358 68 -35 6 -53 14 -45 18 17 10 179 33 184 27 3 -3 -16 -8 -41 -12 -26 -3
-45 -8 -43 -11 3 -2 33 0 67 4 55 8 72 2 31 -11 -8 -2 -2 -3 14 -1 16 2 42 4
58 4 16 0 27 4 24 9 -3 4 7 6 22 3 15 -3 23 -1 19 4 -5 5 -39 12 -75 15 l-67
6 60 0 c33 0 73 -2 90 -6z m-383 -72 c43 -7 73 -16 66 -20 -6 -4 -49 -13 -94
-20 -67 -10 -98 -9 -159 1 -41 7 -78 16 -80 20 -3 4 14 10 38 14 23 3 60 10
82 15 22 4 47 7 55 6 8 -2 50 -9 92 -16z m-1187 -119 c594 -119 1099 -223
1155 -237 31 -8 36 -14 44 -51 5 -23 7 -45 4 -47 -4 -4 -351 75 -483 110 -11
3 -220 52 -465 110 -245 57 -461 109 -480 115 -19 5 -109 28 -199 50 -91 22
-166 42 -169 44 -9 10 11 26 26 22 10 -3 265 -55 567 -116z m2182 90 c13 -35
23 -31 -140 -59 -96 -17 -115 -17 -175 -5 -37 7 -80 14 -97 16 -19 2 4 10 65
20 143 26 171 28 164 16 -4 -5 4 -4 17 3 26 15 101 36 134 38 14 1 24 -8 32
-29z m-747 -21 c45 -10 72 -15 100 -18 8 -2 -23 -11 -70 -21 -84 -18 -100 -18
-238 6 -23 3 -40 9 -38 12 8 7 127 30 166 30 19 1 55 -3 80 -9z m305 -57 l90
-18 -96 -18 c-93 -17 -99 -17 -195 1 l-99 20 60 7 c33 4 71 11 85 16 36 12 55
11 155 -8z m465 -6 c0 -23 -82 -35 -140 -19 -21 6 -17 9 30 19 79 16 110 17
110 0z m-227 -47 l42 -1 -55 -13 c-72 -18 -223 -25 -208 -10 8 8 151 33 166
29 8 -2 32 -4 55 -5z"/>
<path d="M4130 3136 c0 -8 5 -18 10 -21 6 -3 10 3 10 14 0 12 -4 21 -10 21 -5
0 -10 -6 -10 -14z"/>
<path d="M2668 1003 c7 -3 16 -2 19 1 4 3 -2 6 -13 5 -11 0 -14 -3 -6 -6z"/>
<path d="M2308 873 c6 -2 18 -2 25 0 6 3 1 5 -13 5 -14 0 -19 -2 -12 -5z"/>
<path d="M2865 870 c3 -5 18 -10 32 -10 32 0 28 5 -10 14 -19 4 -26 3 -22 -4z"/>
<path d="M2368 863 c7 -3 16 -2 19 1 4 3 -2 6 -13 5 -11 0 -14 -3 -6 -6z"/>
<path d="M2690 856 c0 -2 7 -7 16 -10 8 -3 12 -2 9 4 -6 10 -25 14 -25 6z"/>
<path d="M2093 833 c9 -2 23 -2 30 0 6 3 -1 5 -18 5 -16 0 -22 -2 -12 -5z"/>
<path d="M3133 813 c9 -2 23 -2 30 0 6 3 -1 5 -18 5 -16 0 -22 -2 -12 -5z"/>
<path d="M2398 783 c6 -2 18 -2 25 0 6 3 1 5 -13 5 -14 0 -19 -2 -12 -5z"/>
<path d="M2328 773 c7 -3 16 -2 19 1 4 3 -2 6 -13 5 -11 0 -14 -3 -6 -6z"/>
<path d="M2917 1222 c-43 -8 -76 -16 -73 -19 5 -5 148 15 155 22 10 11 -8 10
-82 -3z"/>
<path d="M2765 1190 l-30 -8 30 0 c17 0 39 3 50 8 l20 9 -20 -1 c-11 0 -33 -4
-50 -8z"/>
<path d="M2673 1173 c9 -2 25 -2 35 0 9 3 1 5 -18 5 -19 0 -27 -2 -17 -5z"/>
<path d="M2550 1150 c-10 -6 -2 -7 25 -3 49 7 58 13 19 13 -16 0 -36 -5 -44
-10z"/>
<path d="M2380 1126 c0 -10 28 -13 41 -5 10 6 7 9 -13 9 -16 0 -28 -2 -28 -4z"/>
<path d="M2318 1103 c6 -2 18 -2 25 0 6 3 1 5 -13 5 -14 0 -19 -2 -12 -5z"/>
<path d="M2150 1080 l-45 -7 40 -1 c22 -1 47 3 55 8 8 5 11 9 5 8 -5 0 -30 -4
-55 -8z"/>
<path d="M1980 1056 c0 -2 7 -7 16 -10 8 -3 12 -2 9 4 -6 10 -25 14 -25 6z"/>
<path d="M2020 1050 c0 -5 5 -10 10 -10 6 0 10 5 10 10 0 6 -4 10 -10 10 -5 0
-10 -4 -10 -10z"/>
<path d="M1940 1040 c0 -5 9 -10 21 -10 11 0 17 5 14 10 -3 6 -13 10 -21 10
-8 0 -14 -4 -14 -10z"/>
<path d="M1855 1030 c-16 -7 -17 -9 -3 -9 9 -1 20 4 23 9 7 11 7 11 -20 0z"/>
<path d="M1895 1030 c-3 -5 -2 -10 4 -10 5 0 13 5 16 10 3 6 2 10 -4 10 -5 0
-13 -4 -16 -10z"/>
<path d="M1750 1010 c0 -5 7 -7 15 -4 8 4 15 8 15 10 0 2 -7 4 -15 4 -8 0 -15
-4 -15 -10z"/>
<path d="M1680 995 l-25 -15 30 6 c17 4 37 10 45 15 12 7 11 8 -5 8 -11 0 -31
-6 -45 -14z"/>
<path d="M1547 980 c-27 -5 -51 -11 -54 -14 -9 -9 112 6 122 15 10 10 1 10
-68 -1z"/>
<path d="M1340 940 c0 -6 11 -8 28 -4 39 10 40 14 4 14 -18 0 -32 -5 -32 -10z"/>
<path d="M1240 929 c-14 -4 -65 -14 -114 -21 -63 -9 -91 -17 -94 -28 -2 -10
-1 -11 5 -3 5 6 33 14 63 17 57 5 212 35 219 42 8 7 -53 2 -79 -7z"/>
<path d="M1005 811 c9 -9 187 -50 355 -82 133 -25 906 -182 1010 -204 242 -53
504 -105 513 -102 5 1 -69 20 -164 41 -96 21 -201 44 -234 51 -408 90 -1017
215 -1360 279 -49 10 -99 20 -110 23 -14 4 -17 2 -10 -6z"/>
<path d="M3114 447 c-8 -9 4 -13 48 -14 32 -1 58 1 58 6 0 22 -88 29 -106 8z"/>
<path d="M2908 413 c6 -2 18 -2 25 0 6 3 1 5 -13 5 -14 0 -19 -2 -12 -5z"/>
<path d="M2958 403 c7 -3 16 -2 19 1 4 3 -2 6 -13 5 -11 0 -14 -3 -6 -6z"/>
<path d="M3020 390 c8 -5 26 -9 40 -9 l25 1 -25 8 c-14 4 -32 8 -40 9 -13 1
-13 0 0 -9z"/>
<path d="M3094 275 c-4 -8 -3 -26 0 -39 5 -20 16 -26 56 -35 28 -6 53 -11 55
-11 3 0 5 18 5 39 0 39 0 39 -50 50 -63 14 -60 14 -66 -4z"/>
</g>
</svg>
