<?xml version="1.0" standalone="no"?>
<!DOCTYPE svg PUBLIC "-//W3C//DTD SVG 20010904//EN"
 "http://www.w3.org/TR/2001/REC-SVG-20010904/DTD/svg10.dtd">
<svg version="1.0" xmlns="http://www.w3.org/2000/svg"
 width="1000.000000pt" height="800.000000pt" viewBox="0 0 1000.000000 800.000000"
 preserveAspectRatio="xMidYMid meet">

<g transform="translate(0.000000,800.000000) scale(0.100000,-0.100000)"
fill="#000000" stroke="none">
<path d="M7515 6790 c-159 -5 -515 -13 -790 -19 -275 -6 -696 -16 -935 -21
-757 -18 -1325 -29 -2005 -40 -363 -6 -675 -13 -693 -16 -64 -10 -56 43 -107
-749 -29 -449 -51 -788 -65 -995 -17 -244 -39 -576 -50 -765 -6 -99 -15 -234
-19 -300 -5 -66 -7 -121 -6 -123 1 -1 64 -6 140 -10 121 -6 138 -9 141 -24 1
-11 -4 -18 -14 -18 -8 0 -23 -7 -32 -15 -14 -12 -38 -13 -151 -7 -126 8 -159
4 -159 -18 0 -5 63 -11 140 -15 115 -6 140 -10 140 -23 0 -12 -15 -14 -97 -8
-160 10 -231 10 -245 -1 -7 -6 -33 -22 -58 -35 -25 -14 -151 -85 -280 -158
-129 -74 -280 -159 -335 -190 -55 -31 -158 -90 -230 -130 -71 -40 -175 -99
-230 -130 -55 -31 -189 -107 -297 -168 -108 -61 -212 -120 -230 -130 -126 -71
-148 -84 -157 -96 -12 -15 2 -78 22 -94 18 -15 169 -50 287 -67 58 -8 247 -28
420 -45 173 -17 383 -37 465 -45 83 -8 269 -26 415 -40 146 -14 310 -30 365
-35 312 -30 607 -59 830 -80 55 -5 172 -17 260 -25 88 -8 277 -27 420 -40 143
-14 325 -32 405 -39 80 -8 199 -20 265 -26 66 -6 185 -17 265 -25 80 -8 260
-26 400 -40 573 -55 782 -76 925 -90 169 -17 277 -28 515 -50 91 -9 212 -20
270 -26 144 -15 395 -9 412 10 11 12 10 13 -3 9 -12 -5 -14 1 -10 35 5 31 12
45 31 54 13 6 26 11 28 9 1 -2 -1 -22 -6 -44 -8 -33 -7 -39 4 -35 22 8 18 127
-16 548 -6 66 -19 246 -30 400 -11 154 -25 337 -31 406 l-12 127 -146 6 c-187
9 -221 14 -221 33 0 16 -4 16 283 -3 83 -6 89 -5 85 12 -3 17 -20 20 -183 29
l-180 10 0 40 0 40 45 0 c25 0 107 -4 183 -9 l137 -8 0 83 c0 46 5 156 10 244
5 88 19 351 30 585 11 234 24 515 30 625 5 110 16 344 25 520 8 176 19 403 25
505 5 102 15 301 21 443 12 256 12 258 -8 279 -27 27 -50 28 -408 18z m165
-262 c0 -13 -4 -117 -9 -233 -6 -115 -15 -349 -21 -520 -10 -279 -18 -448 -50
-1040 -9 -173 -37 -699 -43 -817 -2 -32 -6 -60 -9 -63 -3 -4 -104 -2 -225 4
-255 13 -760 36 -1088 51 -126 6 -367 17 -535 25 -168 8 -415 19 -550 25 -135
6 -335 15 -445 20 -110 6 -303 15 -430 20 -126 6 -369 17 -540 25 -170 8 -390
18 -487 22 -137 5 -178 9 -178 19 0 7 9 172 20 366 11 194 27 475 35 623 20
357 45 750 75 1166 6 74 10 160 10 191 0 31 3 59 8 62 8 5 675 18 2207 41 556
9 1201 20 1435 24 234 4 514 9 623 9 l197 2 0 -22z m-4587 -2599 c-7 -24 -23
-35 -23 -15 0 8 -3 21 -6 29 -4 12 0 14 14 10 14 -3 18 -11 15 -24z m55 -8
c-3 -29 -25 -34 -41 -9 -8 12 -7 21 2 32 19 22 43 8 39 -23z m52 18 c0 -5 -6
-7 -12 -3 -9 5 -8 2 1 -10 19 -22 -2 -48 -21 -27 -11 12 -9 13 7 7 19 -6 19
-5 3 8 -24 18 -23 36 2 36 11 0 20 -5 20 -11z m31 -1 c0 -10 2 -10 6 0 9 22
24 13 20 -13 -3 -26 -17 -47 -17 -25 0 10 -3 10 -15 0 -13 -11 -15 -8 -15 19
0 29 19 46 21 19z m46 -35 c-3 -10 -5 -2 -5 17 0 19 2 27 5 18 2 -10 2 -26 0
-35z m52 38 c7 -5 11 -13 7 -19 -3 -6 -2 -13 4 -17 5 -3 10 3 10 14 0 12 7 21
15 21 8 0 15 -6 15 -14 0 -8 3 -23 6 -33 5 -13 4 -15 -5 -7 -7 6 -30 9 -51 7
-37 -4 -40 -2 -40 20 0 35 13 45 39 28z m-464 -431 c3 -5 1 -10 -4 -10 -6 0
-11 5 -11 10 0 6 2 10 4 10 3 0 8 -4 11 -10z m599 -105 c-4 -8 -11 -15 -16
-15 -6 0 -5 6 2 15 7 8 14 15 16 15 2 0 1 -7 -2 -15z m254 -15 c-7 -11 -17
-20 -22 -20 -5 0 -1 9 9 20 10 11 20 20 22 20 2 0 -2 -9 -9 -20z m-1078 0 c0
-5 -5 -10 -11 -10 -5 0 -7 5 -4 10 3 6 8 10 11 10 2 0 4 -4 4 -10z m1330 -26
c0 -2 -7 -4 -15 -4 -8 0 -15 4 -15 10 0 5 7 7 15 4 8 -4 15 -8 15 -10z m-1310
-4 c0 -5 -7 -10 -16 -10 -8 0 -12 5 -9 10 3 6 10 10 16 10 5 0 9 -4 9 -10z
m320 6 c0 -3 -4 -8 -10 -11 -5 -3 -10 -1 -10 4 0 6 5 11 10 11 6 0 10 -2 10
-4z m260 -16 c0 -5 -5 -10 -11 -10 -5 0 -7 5 -4 10 3 6 8 10 11 10 2 0 4 -4 4
-10z m40 -10 c0 -5 -2 -10 -4 -10 -3 0 -8 5 -11 10 -3 6 -1 10 4 10 6 0 11 -4
11 -10z m205 -10 c-3 -5 -12 -10 -18 -10 -7 0 -6 4 3 10 19 12 23 12 15 0z
m279 -21 c-2 -4 -13 -7 -24 -6 -10 1 -17 4 -14 8 2 4 13 7 24 6 10 -1 17 -4
14 -8z m-1174 -8 c0 -12 -39 -25 -47 -17 -4 3 1 6 11 6 9 0 14 5 11 10 -3 6 1
10 9 10 9 0 16 -4 16 -9z m1440 5 c0 -2 -8 -10 -17 -17 -16 -13 -17 -12 -4 4
13 16 21 21 21 13z m-1503 -19 c2 -3 -12 -4 -31 -4 -20 1 -36 5 -36 9 0 7 58
3 67 -5z m2492 3 c-6 -5 -18 -6 -26 -3 -19 8 -16 11 13 11 17 0 22 -3 13 -8z
m-2059 -4 c0 -3 -4 -8 -10 -11 -5 -3 -10 -1 -10 4 0 6 5 11 10 11 6 0 10 -2
10 -4z m1315 -6 c3 -5 1 -10 -4 -10 -6 0 -11 5 -11 10 0 6 2 10 4 10 3 0 8 -4
11 -10z m995 0 c0 -5 -5 -10 -11 -10 -5 0 -7 5 -4 10 3 6 8 10 11 10 2 0 4 -4
4 -10z m-2075 -20 c3 -5 2 -10 -4 -10 -5 0 -13 5 -16 10 -3 6 -2 10 4 10 5 0
13 -4 16 -10z m1335 0 c0 -5 -5 -10 -11 -10 -5 0 -7 5 -4 10 3 6 8 10 11 10 2
0 4 -4 4 -10z m55 0 c-3 -5 -11 -10 -16 -10 -6 0 -7 5 -4 10 3 6 11 10 16 10
6 0 7 -4 4 -10z m-1155 -15 c-7 -9 -15 -13 -19 -10 -3 3 1 10 9 15 21 14 24
12 10 -5z m1375 -5 c-3 -5 -11 -10 -16 -10 -6 0 -7 5 -4 10 3 6 11 10 16 10 6
0 7 -4 4 -10z m-1095 -4 c0 -2 -7 -7 -16 -10 -8 -3 -12 -2 -9 4 6 10 25 14 25
6z m-1030 -20 c0 -3 -4 -8 -10 -11 -5 -3 -10 -1 -10 4 0 6 5 11 10 11 6 0 10
-2 10 -4z m1334 -11 c-4 -8 -11 -15 -16 -15 -6 0 -5 6 2 15 7 8 14 15 16 15 2
0 1 -7 -2 -15z m1338 -7 c-7 -7 -12 -8 -12 -2 0 14 12 26 19 19 2 -3 -1 -11
-7 -17z m-2967 2 c7 -11 -9 -11 -45 0 -24 8 -24 8 7 9 17 1 35 -3 38 -9z m565
-14 c-19 -7 -39 -10 -45 -7 -11 6 29 19 60 19 11 1 5 -5 -15 -12z m1285 4 c-3
-5 -11 -10 -16 -10 -6 0 -7 5 -4 10 3 6 11 10 16 10 6 0 7 -4 4 -10z m45 0 c0
-5 -5 -10 -11 -10 -5 0 -7 5 -4 10 3 6 8 10 11 10 2 0 4 -4 4 -10z m-1072 -35
c-3 -3 -9 2 -12 12 -6 14 -5 15 5 6 7 -7 10 -15 7 -18z m1596 -3 c2 -4 -4 -8
-14 -8 -10 0 -16 4 -14 8 3 4 9 8 14 8 5 0 11 -4 14 -8z m270 -17 c-4 -8 -11
-15 -16 -15 -6 0 -5 6 2 15 7 8 14 15 16 15 2 0 1 -7 -2 -15z m-2785 -12 c3
-2 -9 -3 -27 -1 -18 1 -32 6 -32 10 0 8 49 0 59 -9z m1451 7 c0 -5 -2 -10 -4
-10 -3 0 -8 5 -11 10 -3 6 -1 10 4 10 6 0 11 -4 11 -10z m50 6 c0 -2 -7 -7
-16 -10 -8 -3 -12 -2 -9 4 6 10 25 14 25 6z m2790 0 c0 -3 -4 -8 -10 -11 -5
-3 -10 -1 -10 4 0 6 5 11 10 11 6 0 10 -2 10 -4z m-2575 -25 c-3 -6 -11 -11
-17 -11 -6 0 -6 6 2 15 14 17 26 13 15 -4z m35 -1 c0 -5 -5 -10 -11 -10 -5 0
-7 5 -4 10 3 6 8 10 11 10 2 0 4 -4 4 -10z m2785 0 c3 -5 1 -10 -4 -10 -6 0
-11 5 -11 10 0 6 2 10 4 10 3 0 8 -4 11 -10z m-4238 -6 c-3 -3 -12 -4 -19 -1
-8 3 -5 6 6 6 11 1 17 -2 13 -5z m1718 -5 c4 -6 14 -8 22 -4 13 4 14 3 3 -10
-11 -14 -15 -14 -30 0 -13 12 -19 12 -30 2 -12 -10 -12 -9 -1 6 15 20 27 22
36 6z m1375 -5 c0 -2 -9 -4 -21 -4 -11 0 -18 4 -14 10 5 8 35 3 35 -6z m-2810
-3 c0 -13 -27 -21 -71 -21 -38 0 -52 13 -26 23 21 9 97 7 97 -2z m4201 -4 c-7
-7 -14 -8 -21 -1 -6 6 -2 10 12 11 16 2 18 -1 9 -10z m-2475 -12 c13 -12 11
-14 -15 -12 -22 1 -27 5 -19 15 13 15 16 15 34 -3z m44 -4 c0 -6 -4 -13 -10
-16 -5 -3 -10 1 -10 9 0 9 5 16 10 16 6 0 10 -4 10 -9z m1317 -17 c-3 -3 -12
-4 -19 -1 -8 3 -5 6 6 6 11 1 17 -2 13 -5z m588 -24 c-3 -5 -13 -6 -21 -3 -12
4 -13 8 -3 14 15 9 32 2 24 -11z m249 -8 c2 -4 -4 -8 -15 -8 -10 0 -19 4 -19
8 0 4 6 8 14 8 8 0 17 -4 20 -8z m270 -21 c3 -5 -5 -8 -19 -7 -14 0 -25 4 -25
9 0 10 38 9 44 -2z m-564 -60 c0 -6 -4 -13 -10 -16 -5 -3 -10 1 -10 9 0 9 5
16 10 16 6 0 10 -4 10 -9z m-1547 -16 c-3 -9 -8 -14 -10 -11 -3 3 -2 9 2 15 9
16 15 13 8 -4z m78 -8 c-10 -9 -11 -8 -5 6 3 10 9 15 12 12 3 -3 0 -11 -7 -18z
m-36 3 c-3 -5 -11 -10 -16 -10 -6 0 -7 5 -4 10 3 6 11 10 16 10 6 0 7 -4 4
-10z m1785 0 c0 -5 -2 -10 -4 -10 -3 0 -8 5 -11 10 -3 6 -1 10 4 10 6 0 11 -4
11 -10z m-1480 -20 c0 -5 -2 -10 -4 -10 -3 0 -8 5 -11 10 -3 6 -1 10 4 10 6 0
11 -4 11 -10z m1750 0 c0 -5 -4 -10 -9 -10 -6 0 -13 5 -16 10 -3 6 1 10 9 10
9 0 16 -4 16 -10z m-1480 -34 c0 -3 -4 -8 -10 -11 -5 -3 -10 -1 -10 4 0 6 5
11 10 11 6 0 10 -2 10 -4z m880 -36 c0 -5 -5 -10 -11 -10 -5 0 -7 5 -4 10 3 6
8 10 11 10 2 0 4 -4 4 -10z m40 0 c0 -5 -4 -10 -10 -10 -5 0 -10 5 -10 10 0 6
5 10 10 10 6 0 10 -4 10 -10z m937 -26 c-3 -3 -12 -4 -19 -1 -8 3 -5 6 6 6 11
1 17 -2 13 -5z m-6509 -285 c-3 -8 -7 -3 -11 10 -4 17 -3 21 5 13 5 -5 8 -16
6 -23z m6436 -477 c3 -5 -1 -9 -9 -9 -8 0 -12 4 -9 9 3 4 7 8 9 8 2 0 6 -4 9
-8z"/>
<path d="M4190 5535 c0 -34 1 -35 42 -35 l41 0 -6 -119 -7 -118 43 1 42 1 6
110 c4 61 7 113 8 118 0 4 21 7 46 7 45 0 45 0 45 35 l0 35 -130 0 -130 0 0
-35z"/>
<path d="M4527 5559 c-32 -19 -47 -73 -47 -167 0 -81 2 -90 24 -111 21 -20 36
-24 104 -25 127 -2 152 29 152 187 0 69 -3 81 -25 102 -22 23 -32 25 -107 25
-46 0 -91 -5 -101 -11z m137 -65 c17 -16 20 -87 7 -134 -9 -32 -51 -48 -86
-32 -23 11 -25 17 -25 77 0 52 4 69 20 85 24 24 63 26 84 4z"/>
<path d="M4846 5544 c-21 -21 -26 -36 -26 -74 0 -57 18 -77 80 -85 86 -12 92
-14 88 -37 -2 -11 -10 -25 -19 -31 -23 -14 -70 0 -76 23 -4 16 -14 20 -44 20
-36 0 -39 -2 -39 -29 0 -16 9 -39 19 -52 18 -22 27 -24 110 -24 80 0 93 3 112
22 33 33 33 117 0 144 -13 10 -40 19 -60 20 -55 2 -86 13 -89 33 -8 38 68 51
90 16 9 -14 24 -20 50 -20 33 0 38 3 38 24 0 13 -9 35 -21 50 -19 24 -26 26
-103 26 -77 0 -85 -2 -110 -26z"/>
<path d="M5146 5433 c-4 -76 -9 -148 -12 -160 -4 -21 -1 -23 41 -23 l45 0 0
60 0 60 56 0 56 0 -4 -60 -3 -60 41 0 42 0 7 138 c4 75 8 146 8 157 2 17 -5
21 -40 23 l-43 3 0 -60 0 -61 -55 0 -55 0 0 60 0 60 -39 0 -39 0 -6 -137z"/>
<path d="M5506 5460 c-4 -58 -8 -128 -11 -156 l-5 -52 43 -4 c23 -3 43 -4 43
-4 1 1 6 72 10 158 l9 156 -42 4 -41 3 -6 -105z"/>
<path d="M5676 5463 c-3 -54 -7 -125 -8 -158 l-3 -60 99 -3 c112 -3 153 8 167
45 15 40 10 81 -12 102 l-21 19 21 21 c28 28 28 84 1 111 -18 18 -33 20 -129
20 l-109 0 -6 -97z m176 14 c14 -22 -5 -37 -48 -37 -39 0 -44 2 -44 23 0 13 2
26 5 28 8 9 80 -3 87 -14z m-24 -103 c18 -5 22 -13 20 -33 -3 -24 -7 -26 -48
-26 -35 0 -45 4 -48 18 -8 43 17 56 76 41z"/>
<path d="M6071 5538 c-26 -70 -101 -285 -101 -291 0 -4 19 -7 43 -7 38 0 44 3
54 30 11 28 14 30 66 30 53 0 55 -1 61 -30 5 -28 8 -30 51 -30 25 0 45 3 45 8
0 6 -41 166 -69 270 l-12 42 -65 0 c-58 0 -65 -2 -73 -22z m83 -104 c4 -19 10
-42 13 -50 4 -10 -4 -14 -30 -14 l-35 0 16 50 c9 28 19 50 23 50 4 0 10 -16
13 -36z"/>
<path d="M4166 5074 c-3 -26 -6 -64 -6 -85 l0 -39 50 0 c37 0 50 4 50 14 0 9
-12 16 -32 18 l-32 3 3 68 c2 53 -1 67 -12 67 -9 0 -16 -16 -21 -46z"/>
<path d="M4617 5113 c-4 -3 -7 -17 -7 -30 0 -19 -5 -23 -28 -23 -38 0 -52 -17
-52 -61 0 -45 13 -57 66 -56 l42 0 6 51 c10 84 7 126 -7 126 -8 0 -17 -3 -20
-7z m-12 -109 c0 -22 -5 -29 -20 -29 -23 0 -32 30 -14 51 18 22 34 11 34 -22z"/>
<path d="M4687 5114 c-14 -14 -7 -35 11 -32 9 2 17 10 17 17 0 16 -18 25 -28
15z"/>
<path d="M5086 5084 c-3 -9 -6 -47 -6 -85 0 -52 3 -69 14 -69 16 0 26 43 26
116 0 40 -4 54 -14 54 -8 0 -17 -7 -20 -16z"/>
<path d="M5954 5079 c-7 -12 15 -31 28 -23 4 3 8 12 8 20 0 17 -26 19 -36 3z"/>
<path d="M4297 5052 c-10 -10 -17 -34 -17 -54 0 -28 5 -37 26 -47 27 -12 64
-7 64 9 0 5 -12 10 -27 12 -14 2 -28 9 -31 17 -3 10 4 12 32 9 33 -4 36 -2 36
22 0 49 -51 68 -83 32z m51 -20 c2 -7 -6 -12 -17 -12 -21 0 -27 11 -14 24 9 9
26 2 31 -12z"/>
<path d="M4423 5063 c-24 -9 -13 -23 17 -23 17 0 30 -4 30 -10 0 -5 -10 -10
-23 -10 -13 0 -28 -5 -35 -12 -13 -13 -16 -57 -4 -59 4 -1 26 -3 50 -4 l42 -3
0 54 c0 42 -4 55 -19 64 -21 11 -38 12 -58 3z m47 -73 c0 -12 -28 -25 -36 -17
-9 9 6 27 22 27 8 0 14 -5 14 -10z"/>
<path d="M5866 5055 c-11 -11 -13 -29 -9 -72 3 -32 11 -61 17 -65 19 -13 46
-9 46 7 0 8 -4 15 -10 15 -5 0 -10 16 -10 35 0 24 5 35 15 35 8 0 15 7 15 15
0 8 -7 15 -15 15 -8 0 -15 7 -15 15 0 19 -14 19 -34 0z"/>
<path d="M6678 5027 l43 -44 -46 -42 c-25 -23 -45 -43 -45 -44 0 -2 14 -2 31
-1 19 1 45 15 68 36 20 18 40 36 46 41 5 4 -10 26 -35 52 -33 34 -52 45 -74
45 l-30 0 42 -43z"/>
<path d="M4680 5031 c0 -16 -3 -43 -6 -60 -6 -27 -4 -31 15 -31 19 0 21 5 21
60 0 47 -3 60 -15 60 -10 0 -15 -10 -15 -29z"/>
<path d="M4740 4999 c0 -50 3 -59 18 -59 14 0 19 9 20 37 5 72 42 70 42 -3 0
-33 4 -44 15 -44 13 0 15 11 13 63 l-3 62 -52 1 -53 2 0 -59z"/>
<path d="M4896 5038 c-34 -48 -4 -118 43 -103 17 5 20 3 15 -10 -5 -12 -15
-16 -35 -13 -16 3 -30 -1 -33 -8 -7 -18 3 -24 39 -24 50 0 68 28 69 106 l1 66
-42 4 c-35 3 -45 0 -57 -18z m62 -37 c5 -33 -14 -49 -34 -29 -13 13 -14 20 -4
37 14 27 34 23 38 -8z"/>
<path d="M5150 4989 c0 -46 3 -59 15 -59 10 0 15 10 15 33 0 42 13 62 35 53
13 -5 16 -15 13 -46 -3 -33 -1 -40 15 -40 16 0 18 7 15 58 l-3 57 -52 1 -53 2
0 -59z"/>
<path d="M5300 5035 c0 -7 -3 -33 -6 -59 -6 -42 -5 -46 14 -46 17 0 21 7 24
42 2 31 8 44 21 46 14 3 17 -4 17 -48 0 -44 3 -51 18 -48 13 2 18 15 20 51 2
27 -2 55 -8 62 -14 17 -100 17 -100 0z"/>
<path d="M5459 5032 c-28 -24 -31 -79 -4 -98 45 -33 105 -3 105 51 0 57 -56
83 -101 47z m59 -43 c2 -14 -3 -31 -11 -37 -21 -18 -41 10 -33 44 9 33 40 29
44 -7z"/>
<path d="M5584 5023 c2 -10 10 -37 17 -60 18 -63 43 -58 75 12 29 67 29 65 4
65 -14 0 -21 -9 -26 -35 -9 -50 -21 -52 -29 -5 -5 31 -11 40 -27 40 -14 0 -18
-5 -14 -17z"/>
<path d="M5725 5031 c-7 -12 12 -24 24 -17 5 4 17 3 26 -1 14 -5 11 -8 -15
-17 -74 -25 -65 -80 14 -82 l46 -2 0 52 c0 29 -5 57 -12 64 -14 14 -74 16 -83
3z m58 -76 c-7 -19 -33 -20 -33 -1 0 15 20 26 32 19 4 -2 5 -10 1 -18z"/>
<path d="M5957 5033 c-4 -3 -7 -33 -7 -65 0 -43 4 -58 14 -58 15 0 33 101 21
120 -7 12 -19 13 -28 3z"/>
<path d="M6050 5027 c-61 -30 -43 -117 24 -117 40 0 66 26 66 67 0 47 -45 72
-90 50z m45 -57 c0 -24 -5 -36 -17 -38 -19 -4 -32 29 -23 59 11 34 40 19 40
-21z"/>
<path d="M6166 4992 c-10 -66 -8 -82 14 -82 17 0 20 7 20 39 0 42 22 72 36 49
5 -7 8 -31 9 -53 0 -30 4 -41 18 -43 16 -3 18 3 15 60 l-3 63 -51 2 -52 1 -6
-36z"/>
<path d="M3120 3925 c0 -8 5 -15 10 -15 6 0 10 7 10 15 0 8 -4 15 -10 15 -5 0
-10 -7 -10 -15z"/>
</g>
</svg>
